<svg width="39" height="50" viewBox="0 0 39 50" fill="none" xmlns="http://www.w3.org/2000/svg">
<g id="Group 1353">
<path id="Vector" d="M38.0909 6.9752C38.0789 6.77624 37.9914 6.58937 37.8461 6.45285C37.7009 6.31634 37.509 6.24049 37.3097 6.24085C37.2354 6.24085 29.4779 6.18617 25.353 4.63544C22.0797 3.40501 19.8454 0.354339 19.822 0.32309C19.7496 0.22305 19.6544 0.141608 19.5444 0.0854453C19.4344 0.0292826 19.3127 0 19.1892 0C19.0657 0 18.9439 0.0292826 18.8339 0.0854453C18.7239 0.141608 18.6288 0.22305 18.5564 0.32309C18.533 0.354339 16.3143 3.3972 13.0214 4.61982C8.89658 6.18617 1.14295 6.24866 1.06482 6.24866C0.865501 6.24831 0.67358 6.32415 0.528349 6.46067C0.383117 6.59718 0.295559 6.78405 0.2836 6.98301C0.221103 7.94782 -1.17338 30.6814 2.84992 36.1929C5.33811 39.603 9.24032 42.0521 12.6777 44.2239C15.6268 46.0676 18.408 47.8175 18.408 49.2159C18.408 49.4231 18.4903 49.6218 18.6368 49.7683C18.7833 49.9148 18.982 49.9971 19.1892 49.9971C19.3964 49.9971 19.5951 49.9148 19.7416 49.7683C19.8881 49.6218 19.9704 49.4231 19.9704 49.2159C19.9704 47.8175 22.7516 46.0676 25.6968 44.2161C29.1342 42.0482 33.0364 39.5952 35.5246 36.1851C39.5479 30.6736 38.1534 7.94001 38.0909 6.9752ZM34.2629 35.2633C31.9505 38.4311 28.1733 40.8021 24.8648 42.8919C22.3922 44.4544 20.2751 45.7785 19.1892 47.1886C18.1033 45.7746 15.9862 44.4544 13.5136 42.8919C10.2051 40.8021 6.42792 38.4311 4.1155 35.2633C0.795301 30.7166 1.61168 11.7368 1.80698 7.81111C3.90066 7.76033 9.91608 7.49081 13.5722 6.11976C16.2323 5.09636 18.2283 3.12377 19.1892 2.01834C20.1501 3.12377 22.1461 5.09636 24.8062 6.10023C28.4662 7.47518 34.4816 7.7408 36.5753 7.79158C36.962 14.7132 37.2198 31.2126 34.2629 35.2633Z" fill="#E3B576"/>
<path id="Vector_2" d="M21.5329 33.5915H19.9704V14.9789C20.7397 14.776 21.3996 14.2814 21.8102 13.6C23.7705 14.234 25.4985 15.4358 26.7749 17.053C27.0163 17.37 27.3268 17.6276 27.6829 17.8063C28.039 17.985 28.4311 18.0801 28.8295 18.0843C29.2536 18.0859 29.6711 17.9791 30.0423 17.774C30.4135 17.5689 30.7261 17.2723 30.9505 16.9124C31.0598 16.7372 31.0953 16.5258 31.0491 16.3246C31.003 16.1233 30.8791 15.9484 30.7044 15.8382C30.6175 15.7835 30.5206 15.7465 30.4194 15.7292C30.3181 15.712 30.2145 15.7149 30.1143 15.7377C30.0142 15.7606 29.9196 15.803 29.8358 15.8624C29.7521 15.9219 29.6809 15.9973 29.6263 16.0843C29.2006 16.764 28.4154 16.6117 27.9975 16.0843C26.5242 14.2127 24.5222 12.8273 22.2516 12.1079C22.2516 12.0806 22.2516 12.0532 22.2516 12.0259C22.2515 11.283 21.981 10.5656 21.4907 10.0075C21.0004 9.44945 20.3237 9.08892 19.587 8.99325C18.8503 8.89758 18.104 9.0733 17.4874 9.4876C16.8708 9.90189 16.426 10.5265 16.2362 11.2447C14.211 11.1961 12.2156 11.7391 10.4942 12.8071C9.91999 13.1547 9.13095 13.0297 8.96299 12.2446C8.94644 12.1401 8.90881 12.04 8.85238 11.9504C8.79596 11.8608 8.72192 11.7837 8.63476 11.7236C8.5476 11.6635 8.44914 11.6217 8.34536 11.6009C8.24158 11.58 8.13464 11.5805 8.03103 11.6022C7.92742 11.6239 7.82931 11.6665 7.74266 11.7273C7.656 11.7881 7.58261 11.8659 7.52693 11.9559C7.47126 12.0459 7.43446 12.1464 7.41878 12.251C7.40309 12.3557 7.40885 12.4625 7.4357 12.5649C7.53713 13.055 7.78355 13.5033 8.14297 13.8516C8.50239 14.1998 8.95821 14.432 9.45126 14.518C10.0964 14.6088 10.7529 14.4706 11.3067 14.1274C12.7836 13.2112 14.4946 12.7431 16.2323 12.7798C16.3684 13.3054 16.6415 13.7855 17.0237 14.1711C17.406 14.5568 17.8836 14.8342 18.408 14.975V33.5915H16.8455C15.9206 33.6153 15.0402 33.9933 14.386 34.6475C13.7318 35.3017 13.3538 36.1821 13.33 37.107V38.2789C13.33 38.4861 13.4123 38.6848 13.5588 38.8313C13.7053 38.9778 13.9041 39.0601 14.1112 39.0601H24.2671C24.4743 39.0601 24.673 38.9778 24.8196 38.8313C24.9661 38.6848 25.0484 38.4861 25.0484 38.2789V37.107C25.0246 36.1821 24.6466 35.3017 23.9924 34.6475C23.3382 33.9933 22.4578 33.6153 21.5329 33.5915ZM17.6971 12.022C17.6963 11.7248 17.7838 11.4341 17.9485 11.1868C18.1132 10.9394 18.3476 10.7466 18.6221 10.6327C18.8966 10.5188 19.1987 10.489 19.4901 10.5471C19.7815 10.6051 20.0492 10.7485 20.259 10.9588C20.4689 11.1692 20.6115 11.4372 20.6688 11.7288C20.7261 12.0204 20.6955 12.3224 20.5809 12.5966C20.4663 12.8708 20.2728 13.1047 20.025 13.2688C19.7773 13.4328 19.4864 13.5196 19.1892 13.518C18.7934 13.516 18.4145 13.3575 18.135 13.0773C17.8555 12.7971 17.6981 12.4178 17.6971 12.022V12.022ZM23.4859 37.4976H14.8925V37.107C14.918 36.5973 15.1319 36.1152 15.4928 35.7543C15.8537 35.3934 16.3358 35.1795 16.8455 35.154H21.5329C22.0426 35.1795 22.5247 35.3934 22.8856 35.7543C23.2465 36.1152 23.4604 36.5973 23.4859 37.107V37.4976Z" fill="#E3B576"/>
<path id="Vector_3" d="M15.1933 26.1425C15.2534 26.0294 15.2849 25.9034 15.2849 25.7753C15.2849 25.6472 15.2534 25.5212 15.1933 25.4081L10.1153 16.0335C10.0484 15.9094 9.94912 15.8058 9.8281 15.7336C9.70707 15.6614 9.56876 15.6233 9.42783 15.6233C9.28689 15.6233 9.14859 15.6614 9.02756 15.7336C8.90653 15.8058 8.80729 15.9094 8.74035 16.0335L3.6624 25.4081C3.60222 25.5212 3.57074 25.6472 3.57074 25.7753C3.57074 25.9034 3.60222 26.0294 3.6624 26.1425V26.1425C4.18584 27.2202 5.00608 28.1262 6.02671 28.7538C7.04734 29.3814 8.22593 29.7046 9.42392 29.6853C10.6232 29.7061 11.8035 29.3836 12.8256 28.7559C13.8478 28.1282 14.6693 27.2215 15.1933 26.1425V26.1425ZM9.42392 18.0451L13.1894 24.998H5.65843L9.42392 18.0451ZM9.42392 28.1229C8.74565 28.1434 8.07122 28.0139 7.44871 27.7439C6.82619 27.4738 6.27092 27.0697 5.82248 26.5604H13.0254C12.5769 27.0697 12.0217 27.4738 11.3991 27.7439C10.7766 28.0139 10.1022 28.1434 9.42392 28.1229V28.1229Z" fill="#E3B576"/>
<path id="Vector_4" d="M34.3293 28.9236L29.2514 19.549C29.1844 19.4249 29.0852 19.3213 28.9641 19.2491C28.8431 19.1769 28.7048 19.1388 28.5639 19.1388C28.4229 19.1388 28.2846 19.1769 28.1636 19.2491C28.0426 19.3213 27.9433 19.4249 27.8764 19.549L22.7984 28.9236C22.7383 29.0367 22.7068 29.1627 22.7068 29.2908C22.7068 29.4189 22.7383 29.545 22.7984 29.658C23.3389 30.7239 24.1641 31.6193 25.1825 32.2448C26.2009 32.8702 27.3727 33.2013 28.5678 33.2013C29.7629 33.2013 30.9347 32.8702 31.9531 32.2448C32.9715 31.6193 33.7967 30.7239 34.3371 29.658C34.3961 29.5443 34.4262 29.4179 34.4249 29.2898C34.4235 29.1618 34.3907 29.036 34.3293 28.9236V28.9236ZM28.5639 21.5606L32.3294 28.5135H24.7984L28.5639 21.5606ZM28.5639 31.6384C27.8856 31.6589 27.2112 31.5294 26.5887 31.2594C25.9661 30.9893 25.4109 30.5852 24.9624 30.0759H32.1653C31.7169 30.5852 31.1616 30.9893 30.5391 31.2594C29.9166 31.5294 29.2421 31.6589 28.5639 31.6384V31.6384Z" fill="#E3B576"/>
</g>
</svg>
