<svg width="51" height="50" viewBox="0 0 51 50" fill="none" xmlns="http://www.w3.org/2000/svg">
<g id="Group 1343">
<path id="Vector" d="M47.2355 10.4385C46.2822 10.1525 45.3289 9.91421 44.3756 9.72355C45.4719 8.67493 46.1868 7.245 46.1868 5.57674C46.1868 4.09914 45.6149 2.66921 44.5663 1.62059C43.5176 0.571974 42.0877 0 40.6101 0C37.5119 0 34.9857 2.52622 34.9857 5.6244C34.9857 7.245 35.7007 8.72259 36.7969 9.77121C35.8437 9.96187 34.8904 10.2002 33.9371 10.4862C32.4118 11.0105 31.1249 12.8217 31.1249 14.5853V29.0753H33.0315V14.5377C33.0315 13.632 33.7464 12.4881 34.5091 12.2498C38.4652 10.9628 42.6597 10.9628 46.6635 12.2498C47.4261 12.4881 48.1411 13.632 48.1411 14.5377V29.0276C48.1411 29.5996 47.2355 30.2193 46.4728 30.4099V16.7779H44.5663V47.1401H41.5157V33.6034H39.6092V47.1401H36.5586V16.7779H34.652V49.0467H39.6092H41.5157H46.4728V32.3642C48.1411 32.1735 50.0477 30.7436 50.0477 29.0753V14.5377C50.0477 12.7741 48.7607 10.9628 47.2355 10.4385ZM40.5624 1.90658C41.5634 1.90658 42.469 2.28789 43.184 3.00286C43.899 3.71783 44.2803 4.62345 44.2803 5.6244C44.2803 7.67398 42.612 9.34223 40.5624 9.34223C38.5129 9.34223 36.8446 7.67398 36.8446 5.6244C36.8446 3.57483 38.5129 1.90658 40.5624 1.90658Z" fill="#E3B576"/>
<path id="Vector_2" d="M25.5482 32.5071C27.5501 32.5071 29.2183 30.8388 29.2183 28.8369C29.2183 26.835 27.5501 25.1667 25.5482 25.1667C23.5462 25.1667 21.878 26.835 21.878 28.8369C21.878 30.8388 23.4986 32.5071 25.5482 32.5071ZM25.5482 27.0733C26.5014 27.0733 27.3117 27.8836 27.3117 28.8369C27.3117 29.7902 26.5014 30.6005 25.5482 30.6005C24.5949 30.6005 23.7846 29.7902 23.7846 28.8369C23.7846 27.8836 24.5472 27.0733 25.5482 27.0733Z" fill="#E3B576"/>
<path id="Vector_3" d="M31.4585 29.6949L28.5987 33.4127H21.9733L20.0667 30.9342L21.306 30.5052L17.0162 17.1115C16.5872 15.7292 15.348 13.8703 14.1087 13.346C13.632 13.1077 13.1554 12.9647 12.6787 12.8217C14.0133 11.8207 14.8713 10.2955 14.8713 8.48423C14.8713 5.52903 12.4404 3.09814 9.48522 3.09814C6.53003 3.09814 4.09914 5.52903 4.09914 8.48423C4.09914 10.2478 4.9571 11.8207 6.29171 12.8217C5.81506 12.9647 5.33842 13.1553 4.86177 13.3937C3.6225 13.9656 2.38322 15.7769 1.95424 17.2068L0 23.7845L0.0953293 24.0705C0.42898 25.1668 0.762631 26.3584 1.14395 27.55C1.4776 28.694 1.81125 29.7902 2.1449 30.8389L2.28789 30.7912L0.42898 39.9904H18.6368L17.0162 32.0305L18.2078 31.6491L20.6387 34.795V43.4699H22.2116V49.1897H24.1182V43.4699H26.5014V49.1897H28.408V43.4699H29.9809V34.795L32.9838 30.8865L31.4585 29.6949ZM9.53289 5.00472C11.4395 5.00472 13.0124 6.57765 13.0124 8.48423C13.0124 10.3908 11.4395 11.9637 9.53289 11.9637C7.62631 11.9637 6.05338 10.3908 6.05338 8.48423C6.05338 6.57765 7.57865 5.00472 9.53289 5.00472ZM14.1563 18.0171L12.2974 18.3984L16.3012 37.9885H2.71687L6.72069 18.3984L4.86177 18.0171L3.00286 27.121C3.00286 27.0734 2.9552 27.0257 2.9552 26.9304C2.62154 25.8341 2.28789 24.7378 2.00191 23.7368L3.81316 17.6835C4.14681 16.5872 5.14776 15.3002 5.67207 15.0619C7.102 14.4423 8.34128 14.1563 9.53289 14.1563C10.7245 14.1563 11.9638 14.4423 13.3937 15.0619C13.9657 15.3002 14.919 16.5872 15.2526 17.6835L16.1582 17.3975L15.2526 17.6835L18.9704 29.3136L16.6349 30.1239L14.1563 18.0171ZM22.4976 35.3193H28.0744V41.5157H22.4976V35.3193Z" fill="#E3B576"/>
<path id="Vector_4" d="M10.6768 48.0934H8.38893L7.6263 41.2297L5.71973 41.4681L6.67302 50H12.3451L13.2984 41.4681L11.3918 41.2297L10.6768 48.0934Z" fill="#E3B576"/>
</g>
</svg>
