<svg width="45" height="48" viewBox="0 0 45 48" fill="none" xmlns="http://www.w3.org/2000/svg">
<g id="Group">
<g id="Group_2">
<path id="Vector" d="M43.8235 47.2979H0.683733C0.387386 47.2979 0.154541 47.0651 0.154541 46.7687V42.641C0.154541 42.3447 0.387386 42.1118 0.683733 42.1118H43.8341C44.1304 42.1118 44.3633 42.3447 44.3633 42.641V46.7687C44.3527 47.0651 44.1198 47.2979 43.8235 47.2979ZM1.21293 46.2395H43.3049V43.1702H1.21293V46.2395Z" fill="#E3B576"/>
</g>
<g id="Group_3">
<path id="Vector_2" d="M43.8235 15.6099H28.7521C28.4558 15.6099 28.2229 15.377 28.2229 15.0807C28.2229 14.7843 28.4558 14.5515 28.7521 14.5515H42.0137L22.2536 1.8826L2.48301 14.5515H15.7446C16.0409 14.5515 16.2738 14.7843 16.2738 15.0807C16.2738 15.377 16.0409 15.6099 15.7446 15.6099H0.683759C0.450914 15.6099 0.239237 15.4511 0.175734 15.2288C0.112231 15.0066 0.196902 14.7631 0.397995 14.6361L21.9679 0.813635C22.1372 0.697213 22.3701 0.697213 22.5394 0.813635L44.1093 14.6467C44.3104 14.7737 44.395 15.0172 44.3315 15.2394C44.268 15.4617 44.0669 15.6099 43.8235 15.6099Z" fill="#E3B576"/>
</g>
<g id="Group_4">
<path id="Vector_3" d="M28.0853 43.1702H16.4219C16.1255 43.1702 15.8927 42.9374 15.8927 42.641V26.2255C15.8927 25.9291 16.1255 25.6963 16.4219 25.6963H28.0853C28.3816 25.6963 28.6145 25.9291 28.6145 26.2255V42.641C28.6145 42.9374 28.3816 43.1702 28.0853 43.1702ZM16.9511 42.1118H27.5561V26.7547H16.9511V42.1118Z" fill="#E3B576"/>
</g>
<g id="Group_5">
<path id="Vector_4" d="M9.65883 39.9208C9.36248 39.9208 9.12964 39.6879 9.12964 39.3916V18.3297C9.12964 18.0334 9.36248 17.8005 9.65883 17.8005C9.95518 17.8005 10.188 18.0334 10.188 18.3297V39.381C10.188 39.6879 9.95518 39.9208 9.65883 39.9208ZM4.59975 39.9208C4.3034 39.9208 4.07056 39.6879 4.07056 39.3916V18.3297C4.07056 18.0334 4.3034 17.8005 4.59975 17.8005C4.8961 17.8005 5.12894 18.0334 5.12894 18.3297V39.381C5.12894 39.6879 4.8961 39.9208 4.59975 39.9208Z" fill="#E3B576"/>
</g>
<g id="Group_6">
<path id="Vector_5" d="M10.6855 18.8591H3.57311C3.27676 18.8591 3.04391 18.6263 3.04391 18.3299V15.0807C3.04391 14.7844 3.27676 14.5515 3.57311 14.5515C3.86945 14.5515 4.1023 14.7844 4.1023 15.0807V17.8008H10.1563V15.0807C10.1563 14.7844 10.3891 14.5515 10.6855 14.5515C10.9818 14.5515 11.2146 14.7844 11.2146 15.0807V18.3299C11.2146 18.6263 10.9818 18.8591 10.6855 18.8591Z" fill="#E3B576"/>
</g>
<g id="Group_7">
<path id="Vector_6" d="M10.6855 43.1702C10.3891 43.1702 10.1563 42.9373 10.1563 42.641V39.9209H4.1023V42.641C4.1023 42.9373 3.86945 43.1702 3.57311 43.1702C3.27676 43.1702 3.04391 42.9373 3.04391 42.641V39.3917C3.04391 39.0954 3.27676 38.8625 3.57311 38.8625H10.6855C10.9818 38.8625 11.2146 39.0954 11.2146 39.3917V42.641C11.2146 42.9373 10.9818 43.1702 10.6855 43.1702Z" fill="#E3B576"/>
</g>
<g id="Group_8">
<path id="Vector_7" d="M39.9075 39.9208C39.6111 39.9208 39.3783 39.6879 39.3783 39.3916V18.3297C39.3783 18.0334 39.6111 17.8005 39.9075 17.8005C40.2038 17.8005 40.4367 18.0334 40.4367 18.3297V39.381C40.4367 39.6879 40.2038 39.9208 39.9075 39.9208ZM34.8484 39.9208C34.552 39.9208 34.3192 39.6879 34.3192 39.3916V18.3297C34.3192 18.0334 34.552 17.8005 34.8484 17.8005C35.1447 17.8005 35.3776 18.0334 35.3776 18.3297V39.381C35.3776 39.6879 35.1447 39.9208 34.8484 39.9208Z" fill="#E3B576"/>
</g>
<g id="Group_9">
<path id="Vector_8" d="M40.9341 18.8591H33.8218C33.5254 18.8591 33.2926 18.6263 33.2926 18.3299V15.0807C33.2926 14.7844 33.5254 14.5515 33.8218 14.5515C34.1181 14.5515 34.351 14.7844 34.351 15.0807V17.8008H40.4049V15.0807C40.4049 14.7844 40.6378 14.5515 40.9341 14.5515C41.2305 14.5515 41.4633 14.7844 41.4633 15.0807V18.3299C41.4633 18.6263 41.2305 18.8591 40.9341 18.8591Z" fill="#E3B576"/>
</g>
<g id="Group_10">
<path id="Vector_9" d="M40.9341 43.1702C40.6378 43.1702 40.4049 42.9373 40.4049 42.641V39.9209H34.351V42.641C34.351 42.9373 34.1181 43.1702 33.8218 43.1702C33.5254 43.1702 33.2926 42.9373 33.2926 42.641V39.3917C33.2926 39.0954 33.5254 38.8625 33.8218 38.8625H40.9341C41.2305 38.8625 41.4633 39.0954 41.4633 39.3917V42.641C41.4633 42.9373 41.2305 43.1702 40.9341 43.1702Z" fill="#E3B576"/>
</g>
<g id="Group_11">
<path id="Vector_10" d="M9.65883 23.0713H4.59975C4.3034 23.0713 4.07056 22.8385 4.07056 22.5421C4.07056 22.2458 4.3034 22.0129 4.59975 22.0129H9.65883C9.95518 22.0129 10.188 22.2458 10.188 22.5421C10.188 22.8385 9.95518 23.0713 9.65883 23.0713Z" fill="#E3B576"/>
</g>
<g id="Group_12">
<path id="Vector_11" d="M9.65883 27.2837H4.59975C4.3034 27.2837 4.07056 27.0509 4.07056 26.7545C4.07056 26.4582 4.3034 26.2253 4.59975 26.2253H9.65883C9.95518 26.2253 10.188 26.4582 10.188 26.7545C10.188 27.0509 9.95518 27.2837 9.65883 27.2837Z" fill="#E3B576"/>
</g>
<g id="Group_13">
<path id="Vector_12" d="M9.65883 31.4964H4.59975C4.3034 31.4964 4.07056 31.2635 4.07056 30.9672C4.07056 30.6708 4.3034 30.438 4.59975 30.438H9.65883C9.95518 30.438 10.188 30.6708 10.188 30.9672C10.188 31.2635 9.95518 31.4964 9.65883 31.4964Z" fill="#E3B576"/>
</g>
<g id="Group_14">
<path id="Vector_13" d="M9.65883 35.7085H4.59975C4.3034 35.7085 4.07056 35.4757 4.07056 35.1793C4.07056 34.883 4.3034 34.6501 4.59975 34.6501H9.65883C9.95518 34.6501 10.188 34.883 10.188 35.1793C10.188 35.4757 9.95518 35.7085 9.65883 35.7085Z" fill="#E3B576"/>
</g>
<g id="Group_15">
<path id="Vector_14" d="M39.9075 23.0713H34.8484C34.552 23.0713 34.3192 22.8385 34.3192 22.5421C34.3192 22.2458 34.552 22.0129 34.8484 22.0129H39.9075C40.2038 22.0129 40.4367 22.2458 40.4367 22.5421C40.4367 22.8385 40.2038 23.0713 39.9075 23.0713Z" fill="#E3B576"/>
</g>
<g id="Group_16">
<path id="Vector_15" d="M39.9075 27.2837H34.8484C34.552 27.2837 34.3192 27.0509 34.3192 26.7545C34.3192 26.4582 34.552 26.2253 34.8484 26.2253H39.9075C40.2038 26.2253 40.4367 26.4582 40.4367 26.7545C40.4367 27.0509 40.2038 27.2837 39.9075 27.2837Z" fill="#E3B576"/>
</g>
<g id="Group_17">
<path id="Vector_16" d="M39.9075 31.4964H34.8484C34.552 31.4964 34.3192 31.2635 34.3192 30.9672C34.3192 30.6708 34.552 30.438 34.8484 30.438H39.9075C40.2038 30.438 40.4367 30.6708 40.4367 30.9672C40.4367 31.2635 40.2038 31.4964 39.9075 31.4964Z" fill="#E3B576"/>
</g>
<g id="Group_18">
<path id="Vector_17" d="M39.9075 35.7085H34.8484C34.552 35.7085 34.3192 35.4757 34.3192 35.1793C34.3192 34.883 34.552 34.6501 34.8484 34.6501H39.9075C40.2038 34.6501 40.4367 34.883 40.4367 35.1793C40.4367 35.4757 40.2038 35.7085 39.9075 35.7085Z" fill="#E3B576"/>
</g>
<g id="Group_19">
<path id="Vector_18" d="M22.2536 22.1191C18.3799 22.1191 15.226 18.9651 15.226 15.0914C15.226 11.2177 18.3799 8.06372 22.2536 8.06372C26.1273 8.06372 29.2813 11.2177 29.2813 15.0914C29.2813 18.9651 26.1273 22.1191 22.2536 22.1191ZM22.2536 9.11152C18.962 9.11152 16.2843 11.7892 16.2843 15.0808C16.2843 18.3724 18.962 21.0501 22.2536 21.0501C25.5452 21.0501 28.2229 18.3724 28.2229 15.0808C28.2229 11.7892 25.5452 9.11152 22.2536 9.11152Z" fill="#E3B576"/>
</g>
<g id="Group_20">
<g id="Group_21">
<path id="Vector_19" d="M22.3171 12.731C22.0208 12.731 21.7879 12.4982 21.7879 12.2018V11.1752C21.7879 10.8788 22.0208 10.646 22.3171 10.646C22.6135 10.646 22.8463 10.8788 22.8463 11.1752V12.2018C22.8463 12.4876 22.6135 12.731 22.3171 12.731Z" fill="#E3B576"/>
</g>
<g id="Group_22">
<path id="Vector_20" d="M22.1901 19.5257C21.8938 19.5257 21.6609 19.2928 21.6609 18.9965V17.9699C21.6609 17.6735 21.8938 17.4407 22.1901 17.4407C22.4865 17.4407 22.7193 17.6735 22.7193 17.9699V18.9965C22.7193 19.2928 22.4865 19.5257 22.1901 19.5257Z" fill="#E3B576"/>
</g>
<g id="Group_23">
<path id="Vector_21" d="M22.1054 18.4989C22.0737 18.4989 22.0313 18.4989 21.9996 18.4989C21.1846 18.4566 20.2321 17.9063 20.2427 16.488C20.2427 16.2023 20.4861 15.9588 20.7719 15.9588C21.0682 15.9588 21.3011 16.2023 21.3011 16.488C21.2905 17.0913 21.5445 17.3982 22.0525 17.43C22.5711 17.4617 23.1109 17.123 23.1532 16.7632C23.1532 16.7526 23.1532 16.7526 23.1532 16.742C23.2485 16.0329 22.2854 15.6201 21.989 15.5143C20.6343 15.0169 20.0733 14.2654 20.3273 13.2811C20.666 12.0005 21.7456 11.5559 22.6029 11.6724C23.6189 11.8205 24.2963 12.6567 24.2645 13.6939C24.254 13.9902 24.0105 14.2125 23.7142 14.2019C23.4178 14.1913 23.1956 13.9479 23.2061 13.6515C23.2273 13.0377 22.8145 12.7625 22.4547 12.7096C22.0631 12.6567 21.5339 12.8366 21.354 13.5351C21.3011 13.7256 21.2058 14.0961 22.3489 14.5088C22.8357 14.6888 24.3915 15.3767 24.2116 16.8585C24.1058 17.8745 23.0686 18.4989 22.1054 18.4989Z" fill="#E3B576"/>
</g>
</g>
</g>
</svg>
