<svg width="46" height="50" viewBox="0 0 46 50" fill="none" xmlns="http://www.w3.org/2000/svg">
<g id="Group 1354">
<path id="Vector" d="M15.8383 37.5232C13.9979 36.2341 11.9121 34.7721 9.94872 32.3227C9.91661 32.2832 9.89735 32.2748 9.89735 32.2748C9.885 32.2753 9.83758 32.299 9.80597 32.3316C8.25603 33.8978 10.6941 37.7208 11.7634 39.0613L12.5384 40.0324L11.351 39.6412C6.99108 38.2009 3.72573 34.8165 2.61785 30.588C2.35212 29.575 1.92833 28.4577 0.786864 27.8521C0.685609 27.7993 0.547309 27.7687 0.407033 27.7687C0.403082 27.7687 0.0351064 27.7707 0.0262157 27.9411C-0.774934 44.8892 17.0257 48.7788 20.6022 49.3854C20.6338 49.3913 20.6664 49.3928 20.6936 49.3928C20.7297 49.3928 20.7558 49.3898 20.7558 49.3898C21.0626 48.5595 21.9832 45.6533 21.0675 43.2019C20.052 40.4754 18.099 39.1078 15.8383 37.5232ZM20.0747 48.2834C15.6244 47.4038 1.16719 43.4538 0.990361 29.29C1.32969 29.7256 1.51639 30.2808 1.6626 30.8384C2.85494 35.3919 6.36132 39.0332 11.0418 40.5797L12.2292 40.9708L15.3799 42.0091L13.3104 39.4165L12.5359 38.4459C11.5915 37.2624 10.619 35.5283 10.3582 34.2944C12.039 36.0676 13.7391 37.2585 15.2757 38.3357C17.4875 39.8862 19.2345 41.1106 20.1429 43.5482C20.7618 45.2043 20.3839 47.18 20.0747 48.2834Z" fill="#E3B576"/>
<path id="Vector_2" d="M45.0408 27.9396C45.0324 27.7702 44.6629 27.7682 44.6595 27.7682C44.5207 27.7682 44.3819 27.7993 44.2806 27.8522C43.1391 28.4572 42.7144 29.5745 42.4496 30.587C41.3422 34.816 38.0764 38.2004 33.7155 39.6407L32.5306 40.0314L33.3041 39.0608C34.3724 37.7198 36.8085 33.8954 35.2635 32.3331C35.2304 32.2995 35.183 32.2753 35.1667 32.2748C35.1677 32.2753 35.1484 32.2852 35.1188 32.3222C33.1544 34.7716 31.0686 36.2331 29.2292 37.5218C26.968 39.1068 25.0165 40.475 23.9995 43.2004C23.0837 45.6513 24.0034 48.5591 24.3072 49.3913C24.3072 49.3908 24.3082 49.3908 24.3092 49.3908C24.3151 49.3908 24.3358 49.3923 24.3635 49.3923C24.3926 49.3923 24.4287 49.3908 24.4633 49.3844C28.0413 48.7784 45.8414 44.8882 45.0408 27.9396ZM24.9923 48.2834C24.685 47.1741 24.3102 45.1929 24.9256 43.5462C25.8354 41.1077 27.5834 39.8822 29.7982 38.3293C31.3308 37.255 33.0299 36.0647 34.7093 34.293C34.4628 35.466 33.5782 37.1321 32.5321 38.4449L31.7586 39.4155L29.692 42.0076L32.8398 40.9694L34.0252 40.5787C38.7061 39.0327 42.2125 35.391 43.4049 30.8365C43.5511 30.2788 43.7378 29.7227 44.0766 29.2875C43.8963 43.4449 29.4539 47.4003 24.9923 48.2834Z" fill="#E3B576"/>
<path id="Vector_3" d="M9.01322 29.6362C13.3015 29.6362 16.9398 27.1384 17.6639 23.6977L17.7878 23.1089H16.3826L10.3562 6.9002H21.191L20.7311 25.1681C20.7144 25.5563 20.8072 25.9376 20.8971 26.3061C21.0463 26.9161 21.1243 27.3033 20.8739 27.5661C18.9812 29.5433 11.5486 30.7396 11.5486 30.7396C11.3648 30.8122 11.2334 30.9935 11.2334 31.2073C11.2334 31.4864 11.4532 31.7116 11.7244 31.7116L33.5347 31.6929C33.7609 31.6479 33.9491 31.4528 33.9358 31.2073C33.9131 30.7796 33.3747 30.703 33.3747 30.703C32.1211 30.504 26.0246 29.4485 24.2529 27.5686C24.0123 27.3127 24.0968 26.9329 24.2543 26.3333C24.3536 25.9564 24.4554 25.5667 24.4386 25.1735L23.8444 6.9002H34.329L28.3021 23.1084H27.2806L27.4046 23.6972C28.1287 27.1384 31.767 29.6357 36.0552 29.6357C40.3435 29.6357 43.9808 27.1379 44.7054 23.6972L44.8294 23.1084H43.4251L37.3972 6.9002H38.7506L38.7501 5.37594C38.7368 4.964 38.4389 4.33474 37.6788 4.29078C36.5502 4.22459 34.3601 3.82303 31.5121 3.1582C31.1584 3.07572 30.2294 2.91569 29.8663 2.86926L29.6776 2.84555C28.9056 2.74627 28.1065 2.64353 27.2959 2.64353C26.2824 2.64353 25.4447 2.81097 24.7359 3.15524C24.488 3.27477 24.2736 3.40616 24.0686 3.53507C24.0395 3.55335 24.0103 3.57212 23.9812 3.59039C23.8873 3.64917 23.669 3.88774 23.5362 3.79043C23.3648 3.66646 23.3065 3.43135 23.2438 3.24316C23.1692 3.01694 23.1287 2.76948 23.0931 2.53438C23.0136 1.9955 22.9721 1.45416 22.9326 0.912319C22.9148 0.671283 22.902 0.429752 22.8847 0.18921C22.8694 -0.02713 22.3626 -0.0928226 22.3399 0.179331C22.2683 1.08174 22.167 3.21599 21.7368 3.72178C21.635 3.84081 21.5204 3.76277 21.4118 3.7114C20.496 3.09103 19.4351 2.87568 18.5011 2.74874C18.0822 2.69243 17.6387 2.66329 17.1818 2.66329C15.4002 2.66329 13.5692 3.09251 11.7985 3.50741C10.2643 3.86699 8.81516 4.20632 7.40154 4.29029C6.64287 4.33425 6.34454 4.96301 6.32972 5.39224V6.9002H7.28794L1.26203 23.1084H0.239105L0.363575 23.6972C1.08866 27.1384 4.72594 29.6362 9.01322 29.6362ZM28.8439 30.7337H16.2438C18.3188 30.1661 20.5316 29.3418 21.5851 28.2403C22.2184 27.5789 22.0149 26.7457 21.8514 26.0754C21.7743 25.7588 21.7012 25.4605 21.7131 25.2017L22.1734 6.9002H22.862L23.4581 25.2106C23.469 25.462 23.3895 25.7643 23.305 26.0853C23.1306 26.7496 22.9123 27.576 23.5376 28.2373C24.5774 29.3408 26.7773 30.1656 28.8439 30.7337ZM43.5585 24.1466C42.6294 26.7956 39.5972 28.6582 36.0547 28.6582C32.5118 28.6582 29.4791 26.7956 28.55 24.1466H43.5585ZM42.3997 23.1682H29.3275L35.3766 6.9002H36.3501L42.3997 23.1682ZM7.45933 5.26629C8.95791 5.17787 10.5167 4.81335 12.0237 4.4597C13.7401 4.05765 15.5143 3.64176 17.1818 3.64176C17.5942 3.64176 17.9943 3.66744 18.3687 3.71782C19.6371 3.89021 20.4452 4.17668 21.07 4.67506L21.1564 4.73037C21.2646 4.78421 21.3767 4.81237 21.4913 4.81237C21.4918 4.81237 21.4918 4.81237 21.4918 4.81237C22.1033 4.81187 23.0067 4.82225 23.6261 4.82225C23.754 4.82225 23.8804 4.78816 24.0014 4.72099C24.1788 4.62319 24.3432 4.51947 24.5072 4.41525C24.725 4.27794 24.931 4.14754 25.1651 4.03394C25.7376 3.75586 26.434 3.62052 27.2954 3.62052C28.0432 3.62052 28.8098 3.71881 29.5512 3.81513L29.7414 3.83933C30.0688 3.88082 30.9708 4.03591 31.2879 4.11C33.3401 4.58862 36.1056 5.17787 37.6205 5.26629C37.6783 5.26974 37.7563 5.27468 37.7682 5.39224V5.92173H7.31214L7.31115 5.41002C7.31659 5.27518 7.41982 5.26876 7.45933 5.26629ZM8.33556 6.9002H9.30909L15.3577 23.1687H2.28742L8.33556 6.9002ZM16.518 24.1466C15.5884 26.7956 12.5562 28.6582 9.01322 28.6582C5.47127 28.6582 2.43906 26.7961 1.50949 24.1466H16.518Z" fill="#E3B576"/>
</g>
</svg>
