<svg width="43" height="53" viewBox="0 0 43 53" fill="none" xmlns="http://www.w3.org/2000/svg">
<g id="Group">
<path id="Vector" d="M1.24213 0.00131929C0.943741 0.0294467 0.666671 0.168213 0.46541 0.390336C0.264148 0.612459 0.15326 0.90186 0.154552 1.20162V43.2124C0.154579 43.5307 0.281025 43.836 0.506078 44.0611C0.731131 44.2862 1.03636 44.4127 1.35464 44.4127H12.6804L16.712 47.0946L20.1622 52.271C20.2605 52.4174 20.3898 52.5404 20.541 52.6312C20.6922 52.722 20.8616 52.7784 21.037 52.7963C21.2125 52.8142 21.3897 52.7932 21.5561 52.7348C21.7225 52.6764 21.874 52.5821 21.9998 52.4585L23.8 50.6581C23.9312 50.5305 24.0315 50.3746 24.0933 50.2023C24.155 50.03 24.1766 49.8459 24.1562 49.664L23.6312 45.4817L27.4565 42.0683L33.3256 52.2147C33.4185 52.3716 33.5458 52.5052 33.6979 52.6055C33.8501 52.7058 34.0231 52.7702 34.2038 52.7937C34.3845 52.8172 34.5682 52.7992 34.741 52.7411C34.9137 52.6831 35.0709 52.5864 35.2008 52.4585L38.201 49.4578C38.3552 49.3075 38.4661 49.1185 38.5222 48.9106C38.5783 48.7027 38.5775 48.4836 38.5198 48.2762L34.7882 35.2791C36.9785 32.9186 38.7902 30.7293 40.0386 28.8649C41.383 26.8572 42.2311 25.2958 42.1575 23.7074C42.1303 23.1451 41.905 22.4718 41.4262 22.0944C40.9475 21.717 40.5297 21.6868 40.2449 21.6256C40.183 21.6144 40.1203 21.6082 40.0574 21.6068C38.4693 21.5333 36.9081 22.3815 34.9008 23.7261C34.172 24.2143 33.376 24.8208 32.5568 25.4703V10.8041C32.5595 10.4984 32.4455 10.2033 32.2381 9.97885L23.2374 0.376419C23.1241 0.256734 22.9874 0.16166 22.8358 0.0971268C22.6842 0.0325934 22.5209 -1.79473e-05 22.3561 0.00131929H1.35464C1.31715 -0.000439763 1.27961 -0.000439763 1.24213 0.00131929V0.00131929ZM2.55472 2.40193H21.8498L30.1567 11.273V27.4958C29.615 27.973 29.0509 28.4548 28.4878 28.9775L15.4931 25.2453C15.2874 25.1852 15.0693 25.1814 14.8615 25.2342C14.6538 25.287 14.464 25.3944 14.3118 25.5454L11.3116 28.5461C11.1801 28.676 11.0803 28.8345 11.0201 29.0092C10.9599 29.184 10.9408 29.3703 10.9644 29.5536C10.988 29.737 11.0536 29.9123 11.1561 30.0661C11.2586 30.2199 11.3953 30.348 11.5554 30.4403L21.6811 36.3106L18.2683 40.1366L14.1055 39.6115C13.9251 39.5888 13.7419 39.6073 13.5698 39.6658C13.3976 39.7243 13.241 39.8211 13.1117 39.949L11.3116 41.7495C11.2309 41.827 11.1615 41.9153 11.1053 42.012H2.55472V2.40193ZM20.556 6.00284V11.4042H25.9564L20.556 6.00284ZM39.6823 24.0824C39.6011 24.6092 39.1408 25.8778 38.0322 27.5334C36.7992 29.3746 34.9399 31.6491 32.5756 34.1538C32.4343 34.3042 32.3343 34.4886 32.285 34.689C32.2357 34.8894 32.2389 35.0991 32.2943 35.2979L36.0071 48.2574L34.6007 49.664L28.7878 39.6115C28.699 39.4568 28.5769 39.3238 28.4303 39.2223C28.2837 39.1207 28.1163 39.0531 27.9403 39.0244C27.7644 38.9956 27.5842 39.0065 27.4129 39.0561C27.2416 39.1058 27.0836 39.1929 26.9502 39.3113L21.5498 44.1126C21.4036 44.2424 21.2914 44.4059 21.2227 44.5889C21.1541 44.772 21.1312 44.9689 21.156 45.1628L21.6811 49.3827L21.3435 49.7203L18.6621 45.7255C18.6505 45.7001 18.638 45.6751 18.6246 45.6505L18.6059 45.613C18.5881 45.5873 18.5693 45.5622 18.5496 45.5379C18.5496 45.5317 18.5496 45.5255 18.5496 45.5193C18.4721 45.4105 18.3771 45.3155 18.2683 45.238C18.2561 45.2253 18.2436 45.2129 18.2308 45.2008H18.2121L14.0493 42.4063L14.3868 42.0687L18.6059 42.5939C18.7997 42.6187 18.9967 42.5958 19.1797 42.5272C19.3627 42.4585 19.5262 42.3462 19.6559 42.2L24.4563 36.7986C24.5746 36.6652 24.6618 36.5072 24.7114 36.3359C24.7611 36.1645 24.7719 35.9843 24.7432 35.8083C24.7144 35.6323 24.6469 35.4649 24.5453 35.3183C24.4438 35.1716 24.3109 35.0495 24.1562 34.9607L14.1055 29.1467L15.5119 27.7401L28.4503 31.4723C28.6518 31.5312 28.8651 31.5361 29.0691 31.4868C29.2731 31.4374 29.4606 31.3354 29.6129 31.1909C32.1172 28.8262 34.3911 26.9477 36.2321 25.7146C37.8897 24.6041 39.1574 24.163 39.6823 24.0829V24.0824Z" fill="#E3B576"/>
</g>
</svg>
