<svg width="48" height="49" viewBox="0 0 48 49" fill="none" xmlns="http://www.w3.org/2000/svg">
<g id="Group">
<g id="Group_2">
<path id="Vector" d="M26.5117 22.3292C28.2569 22.3292 29.6717 20.9245 29.6717 19.1917C29.6717 17.4589 28.2569 16.0542 26.5117 16.0542C24.7665 16.0542 23.3517 17.4589 23.3517 19.1917C23.3517 20.9245 24.7665 22.3292 26.5117 22.3292Z" fill="#E3B576"/>
<path id="Vector_2" d="M20.1064 26.0175C20.1064 28.9429 20.1064 29.621 20.1064 29.621C20.1064 29.621 26.3836 29.621 26.3619 29.621L23.3091 23.0501C23.3091 23.0493 20.1064 23.092 20.1064 26.0175Z" fill="#E3B576"/>
<path id="Vector_3" d="M29.7144 23.0493L26.6616 29.6203C26.6399 29.6203 32.9171 29.6203 32.9171 29.6203C32.9171 29.6203 32.9171 28.9421 32.9171 26.0167C32.9171 23.092 29.7144 23.0493 29.7144 23.0493Z" fill="#E3B576"/>
<path id="Vector_4" d="M26.5117 23.0493H24.3124L26.5117 27.8826L28.711 23.0493H26.5117Z" fill="#E3B576"/>
<path id="Vector_5" d="M35.2603 36.605C32.0808 36.605 29.5038 39.1827 29.5038 42.3614C29.5038 45.5409 32.0816 48.1179 35.2603 48.1179C38.4397 48.1179 41.0167 45.5401 41.0167 42.3614C41.0175 39.1827 38.4397 36.605 35.2603 36.605ZM35.2603 46.6199C32.9126 46.6199 31.0025 44.7099 31.0025 42.3622C31.0025 40.0145 32.9126 38.1044 35.2603 38.1044C37.608 38.1044 39.5181 40.0145 39.5181 42.3622C39.5181 44.7099 37.6087 46.6199 35.2603 46.6199Z" fill="#E3B576"/>
<path id="Vector_6" d="M12.1401 42.3622C12.1401 45.5416 14.7179 48.1186 17.8966 48.1186C21.076 48.1186 23.653 45.5409 23.653 42.3622C23.653 39.1827 21.0753 36.6057 17.8966 36.6057C14.7179 36.605 12.1401 39.1827 12.1401 42.3622ZM22.1551 42.3622C22.1551 44.7098 20.245 46.6199 17.8973 46.6199C15.5496 46.6199 13.6396 44.7098 13.6396 42.3622C13.6396 40.0145 15.5496 38.1044 17.8973 38.1044C20.245 38.1044 22.1551 40.0137 22.1551 42.3622Z" fill="#E3B576"/>
<path id="Vector_7" d="M15.8613 11.8279L11.9348 0.160645H0V3.15052H9.78866L12.7073 11.8279H6.3177L13.2311 34.0302H39.9189L47.832 11.8279H15.8613V11.8279ZM38.8624 32.5307H14.3342L8.35441 13.3258H45.7069L38.8624 32.5307Z" fill="#E3B576"/>
</g>
</g>
</svg>
