<svg width="169" height="60" viewBox="0 0 169 60" fill="none" xmlns="http://www.w3.org/2000/svg">
<g id="logo">
<g id="Group">
<path id="Vector" fill-rule="evenodd" clip-rule="evenodd" d="M31.2418 28.4204C30.8407 26.913 30.5088 26.4289 30.3014 25.4055V23.8981C31.3386 23.1097 30.6471 21.3395 33.095 20.5789C35.211 19.9289 37.4929 21.2565 39.6366 21.381C40.2312 21.4087 40.7983 21.4225 41.3238 21.3257L36.8706 30.4534H36.6908C36.5525 30.4534 36.4418 30.5641 36.4418 30.7024C36.4418 30.8407 36.5525 30.9513 36.6908 30.9513H37.0089C37.1057 31.5183 38.7376 33.1088 41.3791 33.1226C43.9653 33.1364 45.9845 31.8779 46.1504 30.9513H46.4962C46.6345 30.9513 46.7451 30.8407 46.7451 30.7024C46.7451 30.5641 46.6345 30.4534 46.4962 30.4534H46.2887L41.8217 21.2012L41.9462 21.1597C42.444 20.9661 42.8589 20.6204 43.1494 20.0257C39.7887 21.9757 36.5387 17.8406 33.261 18.4352C32.2652 18.615 31.2833 19.1267 30.3152 20.0118V18.7533C30.7578 18.6565 31.145 17.9927 30.9652 17.2044C30.7439 16.2086 29.8312 15.6831 29.5822 13.7192C29.3333 15.6969 28.4205 16.2086 28.1992 17.2044C28.0056 18.0342 28.4343 18.698 28.8907 18.7672V20.0257C27.9088 19.1267 26.9269 18.615 25.9311 18.4352C22.6534 17.8406 19.4034 21.9619 16.0427 20.0257C16.347 20.648 16.7896 20.9938 17.3151 21.1874L17.3842 21.2012L12.8757 30.4396H12.6959C12.5576 30.4396 12.447 30.5502 12.447 30.6885C12.447 30.8268 12.5576 30.9375 12.6959 30.9375H13.014C13.1108 31.5045 14.7427 33.0949 17.3842 33.1088C19.9704 33.1226 21.9896 31.8641 22.1556 30.9375H22.5013C22.6396 30.9375 22.7502 30.8268 22.7502 30.6885C22.7502 30.5502 22.6396 30.4396 22.5013 30.4396H22.2939L17.8959 21.3119C18.4076 21.3948 18.9747 21.3948 19.5555 21.3533C21.6992 21.2427 23.9811 19.9012 26.0971 20.5512C28.5588 21.3119 27.8396 23.0821 28.9045 23.8704V25.4885C28.7109 26.5257 28.379 27.0374 27.9641 28.3928C27.6875 29.2917 28.1439 29.9141 28.7386 30.2183C28.4758 30.3013 28.3237 30.3843 28.3237 30.5226C28.3237 30.6609 28.6141 30.8268 29.029 30.896C28.6141 31.2002 28.3375 31.8088 28.4897 32.7215C28.5588 33.1917 28.7248 33.7173 28.9045 34.2705V36.3173H28.8354C28.3652 36.3173 28.8492 41.0748 26.9545 41.0748C26.8162 41.0748 26.6918 41.1854 26.6918 41.3376H25.1428C24.8109 41.3376 24.5343 41.5588 24.4375 41.8631H23.8705C23.3173 41.8631 22.8747 42.195 22.8747 42.5961H36.3589C36.3589 42.195 35.9163 41.8631 35.3631 41.8631H34.7961C34.7131 41.5588 34.4227 41.3376 34.0908 41.3376H32.5418C32.5418 41.1993 32.4312 41.0748 32.279 41.0748C30.3844 41.0748 30.8822 36.3173 30.412 36.3173H30.329V34.2705C30.5088 33.7173 30.6748 33.1917 30.7439 32.7215C30.8961 31.8088 30.6195 31.2002 30.2046 30.896C30.6333 30.8268 30.9099 30.6747 30.9099 30.5226C30.9099 30.3981 30.7578 30.2875 30.495 30.2183C31.062 29.9417 31.4907 29.3332 31.2418 28.4204ZM41.4344 21.3119V21.8789L37.244 30.4673H41.4344V21.3119ZM41.7664 21.215V21.8789L45.9015 30.4534H41.7664V21.215ZM17.4396 21.2289V21.8789L13.2491 30.4673H17.4396V21.2289ZM17.7715 21.3119V21.8789L21.9066 30.4534H17.7715V21.3119Z" fill="#E3B576"/>
<path id="Vector_2" fill-rule="evenodd" clip-rule="evenodd" d="M29.596 59.1782C13.2491 59.1782 0 45.9291 0 29.596C0 13.2629 13.2491 0 29.596 0C45.943 0 59.192 13.2491 59.192 29.596C59.192 45.943 45.9291 59.1782 29.596 59.1782ZM29.596 1.43831C14.0512 1.43831 1.45214 14.0374 1.45214 29.5822C1.45214 45.127 14.0512 57.726 29.596 57.726C45.1408 57.726 57.7399 45.127 57.7399 29.5822C57.7399 14.0374 45.1408 1.43831 29.596 1.43831Z" fill="#E3B576"/>
<path id="Vector_3" fill-rule="evenodd" clip-rule="evenodd" d="M29.596 50.5207C18.0342 50.5207 8.67139 41.1578 8.67139 29.596C8.67139 18.0342 18.0342 8.67139 29.596 8.67139C41.1578 8.67139 50.5207 18.0342 50.5207 29.596C50.5207 41.144 41.144 50.5207 29.596 50.5207ZM29.596 9.6948C18.6013 9.6948 9.6948 18.6013 9.6948 29.596C9.6948 40.5908 18.6013 49.4973 29.596 49.4973C40.5908 49.4973 49.4973 40.5908 49.4973 29.596C49.4973 18.6013 40.5908 9.6948 29.596 9.6948Z" fill="#E3B576"/>
<path id="Vector_4" fill-rule="evenodd" clip-rule="evenodd" d="M25.779 53.9643C24.1194 53.8813 23.1513 54.2271 22.4875 55.7484C26.5396 56.3154 27.079 51.9451 23.5939 51.0324C23.58 53.1622 24.7002 53.3143 25.779 53.9643ZM4.77135 27.4662C4.74369 26.2768 4.42561 25.5992 3.30538 25.1981C3.13942 28.1439 6.3203 28.2683 6.76286 25.7236C5.22774 25.8481 5.18625 26.6502 4.77135 27.4662ZM32.0024 51.1845H32.3897C32.528 51.1845 32.6524 51.2951 32.6524 51.4473V56.0941C32.6524 56.2324 32.5418 56.3569 32.3897 56.3569H32.0024C31.8641 56.3569 31.7397 56.2462 31.7397 56.0941V51.4473C31.7397 51.2951 31.8641 51.1845 32.0024 51.1845ZM30.6471 51.3366H31.0343C31.1726 51.3366 31.2971 51.4473 31.2971 51.5994V56.2462C31.2971 56.3845 31.1865 56.509 31.0343 56.509H30.6471C30.5088 56.509 30.3843 56.3984 30.3843 56.2462V51.5994C30.3843 51.4473 30.495 51.3366 30.6471 51.3366ZM29.3194 51.4611H29.7067C29.845 51.4611 29.9694 51.5717 29.9694 51.7239V56.3707C29.9694 56.509 29.8588 56.6335 29.7067 56.6335H29.3194C29.1811 56.6335 29.0567 56.5228 29.0567 56.3707V51.7239C29.0567 51.5856 29.1811 51.4611 29.3194 51.4611ZM27.9226 51.3366H28.3237C28.462 51.3366 28.5865 51.4473 28.5865 51.5994V56.2462C28.5865 56.3845 28.4758 56.509 28.3237 56.509H27.9226C27.7843 56.509 27.6598 56.3984 27.6598 56.2462V51.5994C27.6598 51.4473 27.7705 51.3366 27.9226 51.3366ZM26.5949 51.1845H26.996C27.1343 51.1845 27.2588 51.2951 27.2588 51.4473V56.0941C27.2588 56.2324 27.1481 56.3569 26.996 56.3569H26.5949C26.4566 56.3569 26.3322 56.2462 26.3322 56.0941V51.4473C26.346 51.2951 26.4566 51.1845 26.5949 51.1845ZM49.7877 15.7661C49.4005 15.0331 49.359 14.5076 49.8983 13.8991C51.0047 15.6278 49.1239 16.7895 47.976 15.3927C48.9579 14.9363 49.2622 15.4065 49.7877 15.7661ZM48.2664 13.7054C47.7547 13.0416 47.6302 12.5299 48.0728 11.8246C49.4558 13.3597 47.7824 14.8257 46.4132 13.6363C47.2983 13.0139 47.6856 13.4427 48.2664 13.7054ZM43.9238 9.99902C44.8919 10.0543 45.3621 10.5799 45.3621 11.1331C44.7674 11.3267 44.0621 10.5937 43.9238 9.99902ZM46.3994 12.0182C45.9153 11.382 45.7909 10.898 46.2196 10.2065C47.5472 11.6724 45.943 13.0831 44.6291 11.9352C45.4866 11.3682 45.8462 11.7693 46.3994 12.0182ZM51.226 17.8406C50.8803 17.0523 50.8803 16.5129 51.4888 15.9044C52.4984 17.7853 50.4654 18.8363 49.3866 17.315C50.4377 16.914 50.7143 17.4257 51.226 17.8406ZM52.2079 19.998C51.9452 19.0576 52.0143 18.4491 52.7888 17.8682C53.6462 20.1225 51.1984 21.0076 50.2164 19.1268C51.4473 18.8502 51.6824 19.4587 52.2079 19.998ZM53.2728 22.4045C53.0377 21.3257 53.1622 20.6481 54.075 20.0395C54.8909 22.6396 52.0696 23.4694 51.0877 21.2842C52.4984 21.0491 52.7335 21.7544 53.2728 22.4045ZM53.7984 25.0045C53.7431 23.8566 53.9782 23.1789 55.0292 22.7225C55.4165 25.53 52.4016 25.9034 51.7654 23.497C53.2452 23.4832 53.342 24.2577 53.7984 25.0045ZM54.2548 27.4662C54.2962 26.2768 54.6005 25.5853 55.7207 25.1981C55.8867 28.1439 52.7058 28.2683 52.2633 25.7236C53.8122 25.8481 53.8537 26.6502 54.2548 27.4662ZM54.3654 30.1492C54.5037 28.9322 54.8771 28.2545 56.0665 27.9502C55.9835 30.9928 52.7196 30.8407 52.4707 28.1853C54.0335 28.4481 54.0058 29.2779 54.3654 30.1492ZM54.2271 32.8875C54.5037 31.6152 54.9601 30.9375 56.2601 30.7439C55.859 33.9524 52.4154 33.4545 52.4292 30.6194C54.0611 31.062 53.9505 31.9333 54.2271 32.8875ZM53.6186 35.5152C54.0888 34.2428 54.6697 33.6205 56.0388 33.6067C55.1399 36.8429 51.6686 35.8195 52.125 32.9013C53.7154 33.6067 53.4665 34.4918 53.6186 35.5152ZM52.7611 38.1014C53.342 36.8705 53.9782 36.3035 55.3197 36.4003C54.1579 39.5535 50.7835 38.2397 51.4749 35.3769C53.0239 36.2067 52.7058 37.0641 52.7611 38.1014ZM51.6962 40.5769C52.443 39.4429 53.1484 38.9588 54.4622 39.2493C52.8718 42.2089 49.7185 40.4525 50.7973 37.7142C52.2218 38.7237 51.7792 39.5397 51.6962 40.5769ZM50.2994 43.011C51.2398 41.9046 52.042 41.4759 53.4111 41.9599C51.3366 44.8919 48.2249 42.6238 49.7186 39.844C51.0877 41.1163 50.5207 41.9184 50.2994 43.011ZM48.5845 45.3759C49.6771 44.311 50.576 43.9653 51.9452 44.6153C49.4696 47.4504 46.4547 44.7397 48.3217 42.0014C49.6217 43.4951 48.9302 44.2695 48.5845 45.3759ZM46.6483 47.4366C47.8792 46.5376 48.8058 46.3025 50.0781 47.1323C47.243 49.6217 44.6153 46.5376 46.8281 44.0759C47.9207 45.694 47.1462 46.3855 46.6483 47.4366ZM44.3664 49.3313C45.6664 48.5291 46.6068 48.3632 47.81 49.2898C44.7951 51.5579 42.4164 48.2802 44.8089 45.9844C45.777 47.6993 44.9472 48.3217 44.3664 49.3313ZM41.9046 50.8802C43.3291 50.3547 44.2834 50.3962 45.293 51.5302C41.877 53.1345 40.2174 49.4419 43.0249 47.6855C43.6196 49.5664 42.6791 50.0089 41.9046 50.8802ZM39.0695 51.9175C40.6046 51.7515 41.5312 52.0281 42.2366 53.4111C38.4887 54.1303 37.7695 50.0919 40.9642 49.0685C41.0749 51.0462 40.0514 51.2536 39.0695 51.9175ZM36.262 53.2451C37.894 53.0792 38.8759 53.3696 39.6227 54.8356C35.6397 55.6101 34.8791 51.309 38.2812 50.2164C38.4057 52.3324 37.3131 52.5398 36.262 53.2451ZM33.261 53.9643C34.9205 53.8813 35.8886 54.2271 36.5525 55.7484C32.5003 56.3154 31.9609 51.9451 35.4461 51.0324C35.4461 53.1622 34.3397 53.3143 33.261 53.9643ZM9.23841 15.7661C9.62565 15.0331 9.68097 14.5214 9.12777 13.8991C8.02138 15.6278 9.90225 16.7895 11.0501 15.3927C10.0682 14.9363 9.76395 15.4065 9.23841 15.7661ZM10.7735 13.7054C11.2852 13.0416 11.4097 12.5299 10.9672 11.8246C9.58416 13.3597 11.2576 14.8257 12.6267 13.6363C11.7278 13.0139 11.3544 13.4427 10.7735 13.7054ZM15.1161 9.99902C14.148 10.0543 13.6778 10.5799 13.6778 11.1331C14.2725 11.3267 14.9778 10.5937 15.1161 9.99902ZM12.6267 12.0182C13.1108 11.382 13.2353 10.898 12.8065 10.2065C11.4789 11.6724 13.0831 13.0831 14.397 11.9352C13.5533 11.3682 13.1938 11.7693 12.6267 12.0182ZM7.8001 17.8406C8.14585 17.0523 8.14585 16.5129 7.53733 15.9044C6.52775 17.7853 8.56075 18.8363 9.63948 17.315C8.60224 16.914 8.32564 17.4257 7.8001 17.8406ZM6.83201 19.998C7.09478 19.0576 7.02563 18.4491 6.25115 17.8682C5.3937 20.1225 7.84159 21.0076 8.82351 19.1268C7.57882 18.8502 7.34372 19.4587 6.83201 19.998ZM5.75328 22.4045C5.98838 21.3257 5.86392 20.6481 4.95114 20.0395C4.13518 22.6396 6.95648 23.4694 7.9384 21.2842C6.52775 21.0491 6.30647 21.7544 5.75328 22.4045ZM5.22774 25.0045C5.28306 23.8566 5.04795 23.1789 3.99688 22.7225C3.60964 25.53 6.62456 25.9034 7.26074 23.497C5.79477 23.4832 5.68413 24.2577 5.22774 25.0045ZM4.67454 30.1492C4.53624 28.9322 4.16284 28.2545 2.97347 27.9502C3.05644 30.9928 6.3203 30.8407 6.56924 28.1853C4.99263 28.4481 5.02029 29.2779 4.67454 30.1492ZM4.81284 32.8875C4.53624 31.6152 4.07986 30.9375 2.77985 30.7439C3.18091 33.9524 6.62456 33.4545 6.61073 30.6194C4.9788 31.062 5.08944 31.9333 4.81284 32.8875ZM5.42136 35.5152C4.95114 34.2428 4.37029 33.6205 3.00112 33.6067C3.90007 36.8429 7.37138 35.8195 6.91499 32.9013C5.31072 33.6067 5.55966 34.4918 5.42136 35.5152ZM6.27881 38.1014C5.69796 36.8705 5.06178 36.3035 3.72028 36.4003C4.88199 39.5535 8.25649 38.2397 7.56499 35.3769C6.01604 36.2067 6.33413 37.0641 6.27881 38.1014ZM7.34372 40.5769C6.5969 39.4429 5.89157 38.9588 4.57773 39.2493C6.16817 42.2089 9.32139 40.4525 8.24266 37.7142C6.81818 38.7237 7.24691 39.5397 7.34372 40.5769ZM8.74054 43.011C7.8001 41.9046 6.99797 41.4759 5.62881 41.9599C7.70329 44.8919 10.815 42.6238 9.32139 39.844C7.9384 41.1163 8.50543 41.9184 8.74054 43.011ZM10.4554 45.3759C9.36288 44.311 8.46394 43.9653 7.09478 44.6153C9.57033 47.4504 12.5852 44.7397 10.7182 42.0014C9.4182 43.4951 10.0959 44.2695 10.4554 45.3759ZM12.3916 47.4366C11.1608 46.5376 10.2342 46.3025 8.96181 47.1323C11.7969 49.6217 14.4246 46.5376 12.2118 44.0759C11.1193 45.694 11.8938 46.3855 12.3916 47.4366ZM14.6597 49.3313C13.3597 48.5291 12.4193 48.3632 11.2161 49.2898C14.231 51.5579 16.6098 48.2802 14.2172 45.9844C13.2629 47.6993 14.0789 48.3217 14.6597 49.3313ZM17.1215 50.8802C15.697 50.3547 14.7427 50.3962 13.7331 51.5302C17.1353 53.1345 18.8087 49.4419 16.0012 47.6855C15.4204 49.5664 16.3608 50.0089 17.1215 50.8802ZM19.9566 51.9175C18.4215 51.7515 17.4949 52.0281 16.7895 53.4111C20.5374 54.1303 21.2566 50.0919 18.0619 49.0685C17.9513 51.0462 18.9885 51.2536 19.9566 51.9175ZM22.7641 53.2451C21.1321 53.0792 20.1502 53.3696 19.4034 54.8356C23.3864 55.6101 24.1471 51.309 20.7449 50.2164C20.6343 52.3324 21.7268 52.5398 22.7641 53.2451Z" fill="#E3B576"/>
<path id="Vector_5" fill-rule="evenodd" clip-rule="evenodd" d="M29.513 2.36475L30.163 4.37008H32.2652L30.5641 5.60094L31.2141 7.59245L29.513 6.36159L27.8119 7.59245L28.4758 5.60094L26.7609 4.37008H28.8768L29.513 2.36475Z" fill="#E3B576"/>
<path id="Vector_6" fill-rule="evenodd" clip-rule="evenodd" d="M35.944 3.78955L36.4557 5.39382H38.1568L36.7876 6.38957L37.3131 7.99384L35.944 6.99809L34.5748 7.99384L35.1004 6.38957L33.7312 5.39382H35.4185L35.944 3.78955Z" fill="#E3B576"/>
<path id="Vector_7" fill-rule="evenodd" clip-rule="evenodd" d="M23.4694 3.78955L22.9438 5.39382H21.2566L22.6258 6.38957L22.1002 7.99384L23.4694 6.99809L24.8385 7.99384L24.313 6.38957L25.6822 5.39382H23.9811L23.4694 3.78955Z" fill="#E3B576"/>
<path id="Vector_8" fill-rule="evenodd" clip-rule="evenodd" d="M41.6004 6.43066L42.0153 7.7445H43.3983L42.2781 8.54664L42.7068 9.86048L41.6004 9.04452L40.4802 9.86048L40.9089 8.54664L39.7887 7.7445H41.1717L41.6004 6.43066Z" fill="#E3B576"/>
<path id="Vector_9" fill-rule="evenodd" clip-rule="evenodd" d="M17.813 6.43066L17.3843 7.7445H16.0013L17.1215 8.54664L16.6928 9.86048L17.813 9.04452L18.9332 9.86048L18.5045 8.54664L19.6247 7.7445H18.2417L17.813 6.43066Z" fill="#E3B576"/>
<path id="Vector_10" fill-rule="evenodd" clip-rule="evenodd" d="M44.3249 43.2461H14.8672C18.5736 47.1461 23.8013 49.5664 29.596 49.5664C35.3908 49.5664 40.6185 47.1323 44.3249 43.2461Z" fill="#E3B576"/>
</g>
<g id="Group 2">
<path id="Vector_11" fill-rule="evenodd" clip-rule="evenodd" d="M74.9644 24.1079C74.9644 21.5305 74.9644 21.0385 74.9878 20.4996C75.0112 19.9138 75.1518 19.6092 75.6204 19.539C75.8313 19.5155 76.089 19.4921 76.2765 19.4921C76.4873 19.4921 76.5811 19.4687 76.5811 19.3281C76.5811 19.2109 76.4639 19.1641 76.2296 19.1641C75.5735 19.1641 74.3317 19.2109 73.91 19.2109C73.4414 19.2109 72.387 19.1641 71.5669 19.1641C71.3092 19.1641 71.192 19.1875 71.192 19.3281C71.192 19.4452 71.2857 19.4921 71.4732 19.4921C71.6841 19.4921 71.8949 19.5155 72.0355 19.539C72.5979 19.6561 72.7384 19.9373 72.7619 20.4996C72.7853 21.0385 72.7853 21.5305 72.7853 24.1079V27.107C72.7853 28.6769 72.7853 30.0124 72.6916 30.7388C72.6213 31.2308 72.5276 31.6057 72.1995 31.676C72.0355 31.6995 71.8481 31.7463 71.5903 31.7463C71.3795 31.7463 71.3092 31.7932 71.3092 31.8869C71.3092 32.0041 71.4263 32.0509 71.6606 32.0509C72.0121 32.0509 72.4338 32.0275 72.8322 32.0275C73.2305 32.004 73.6054 32.0041 73.7928 32.0041C74.4957 32.0041 75.1049 32.0275 75.8781 32.0509C76.6514 32.0743 77.5183 32.0978 78.7601 32.0978C79.6505 32.0978 79.7208 32.0041 79.8379 31.6292C79.9785 31.1371 80.0957 29.8484 80.0957 29.661C80.0957 29.4501 80.0722 29.3798 79.9551 29.3798C79.8145 29.3798 79.7911 29.4735 79.7676 29.6376C79.7442 29.9656 79.5333 30.4342 79.3225 30.6685C78.9007 31.1371 78.2212 31.1371 77.3308 31.1371C75.9953 31.1371 75.5501 31.02 75.2689 30.7622C74.9175 30.4576 74.9175 29.2861 74.9175 27.107V24.1079H74.9644Z" fill="#E3B576"/>
<path id="Vector_12" fill-rule="evenodd" clip-rule="evenodd" d="M88.9993 28.3957C89.0696 28.3957 89.1165 28.4191 89.1633 28.4894L90.3114 31.3948C90.3817 31.5588 90.288 31.6994 90.1709 31.7228C90.0068 31.7463 89.9834 31.7931 89.9834 31.8869C89.9834 31.9806 90.1474 31.9806 90.4286 32.004C91.6938 32.0274 92.7717 32.0274 93.3106 32.0274C93.8729 32.0274 93.9666 32.004 93.9666 31.8634C93.9666 31.7697 93.8963 31.6994 93.7557 31.6994C93.5917 31.6994 93.4043 31.676 93.1934 31.6526C92.9122 31.5823 92.4905 31.3948 91.9281 30.0827C90.9675 27.9037 88.4838 21.9757 88.109 21.1791C87.9449 20.851 87.8981 20.7104 87.6638 20.7104C87.4998 20.7104 87.3826 20.8745 87.2186 21.2962L83.3057 30.4107C83.0011 31.1371 82.7433 31.5823 82.0638 31.676C81.9233 31.676 81.7592 31.6994 81.6187 31.6994C81.5015 31.7463 81.4547 31.8166 81.4547 31.8869C81.4547 32.004 81.5484 32.0509 81.7358 32.0509C82.509 32.0509 83.3291 32.004 83.4697 32.004C83.9383 32.004 84.6412 32.0509 85.1333 32.0509C85.2973 32.0509 85.3676 32.0275 85.3676 31.8869C85.3676 31.7931 85.3441 31.7228 85.1567 31.7228H84.9224C84.4538 31.7228 84.3366 31.5588 84.3366 31.3245C84.3366 31.1605 84.4069 30.7856 84.5475 30.4342L85.3441 28.4894C85.391 28.4191 85.391 28.3957 85.4847 28.3957H88.9993ZM85.7893 27.5991C85.7425 27.5991 85.6956 27.5756 85.7425 27.5053L87.1952 23.8502C87.1952 23.8033 87.2186 23.7096 87.2655 23.7096C87.2889 23.7096 87.3123 23.8033 87.3357 23.8502L88.7416 27.5288C88.765 27.5756 88.7416 27.6225 88.6713 27.6225H85.7893V27.5991Z" fill="#E3B576"/>
<path id="Vector_13" fill-rule="evenodd" clip-rule="evenodd" d="M98.3248 31.6995C98.4654 32.0744 98.5357 32.2384 98.7231 32.2384C98.934 32.2384 99.0277 32.0744 99.3089 31.4652C99.9181 30.1297 101.933 25.0218 102.191 24.4126H102.214L105.26 31.5355C105.471 32.0744 105.588 32.2384 105.799 32.2384C106.01 32.2384 106.104 32.0744 106.268 31.559C106.994 29.4033 108.541 24.8109 109.22 22.9833C109.525 22.1398 109.689 21.6009 110.064 21.4603C110.228 21.4135 110.438 21.3901 110.579 21.3901C110.72 21.3901 110.79 21.3198 110.79 21.226C110.79 21.1323 110.696 21.1089 110.509 21.1089C110.017 21.1089 109.361 21.1323 109.267 21.1323C109.126 21.1323 108.447 21.1089 107.674 21.1089C107.439 21.1089 107.322 21.1323 107.322 21.2495C107.322 21.3432 107.439 21.4135 107.58 21.4135C108.166 21.4135 108.306 21.5775 108.306 21.8118C108.306 22.0227 108.259 22.3038 108.142 22.6553C107.603 24.3423 106.479 28.1615 106.174 28.9816H106.127L103.128 21.8352C102.941 21.3666 102.8 21.1557 102.636 21.1557C102.495 21.1557 102.355 21.2729 102.191 21.6947L99.3323 29.0987H99.2854C99.0511 28.4427 97.6922 24.0612 97.4579 23.1005C97.2704 22.4444 97.1298 21.9524 97.1298 21.7649C97.1298 21.6009 97.1533 21.5306 97.2938 21.4838C97.411 21.4369 97.5516 21.4369 97.6687 21.4369C97.8327 21.4369 97.9499 21.3901 97.9499 21.2729C97.9499 21.1792 97.8562 21.1323 97.6219 21.1323C96.7549 21.1323 96.0286 21.1557 95.888 21.1557C95.7474 21.1557 94.9273 21.1323 94.1541 21.1323C93.9433 21.1323 93.8027 21.1557 93.8027 21.2729C93.8027 21.3666 93.8964 21.4369 94.037 21.4369C94.1776 21.4369 94.4587 21.4604 94.6227 21.5541C94.8336 21.6947 94.9742 22.0227 95.1617 22.5616L98.3248 31.6995Z" fill="#E3B576"/>
<path id="Vector_14" fill-rule="evenodd" clip-rule="evenodd" d="M123.794 25.7246C123.794 25.6074 123.817 25.5606 123.911 25.5606C124.192 25.5606 125.996 25.5606 126.441 25.6074C126.98 25.6777 127.215 25.9823 127.308 26.2166C127.379 26.4275 127.402 26.615 127.402 26.7555C127.402 26.8727 127.426 26.9898 127.543 26.9898C127.707 26.9898 127.707 26.8258 127.707 26.6618C127.707 26.5447 127.73 25.7715 127.777 25.42C127.824 24.8811 127.918 24.4593 127.918 24.3656C127.918 24.2719 127.894 24.2016 127.824 24.2016C127.73 24.2016 127.683 24.2719 127.613 24.3656C127.449 24.5765 127.215 24.6468 126.887 24.6702C126.652 24.6936 126.418 24.6936 126.113 24.6936L123.934 24.7171C123.841 24.7171 123.817 24.6702 123.817 24.5531V20.2887C123.817 20.1012 123.864 20.0544 123.981 20.0544L126.605 20.1012C127.262 20.1247 127.613 20.3824 127.73 20.6167C127.824 20.851 127.824 21.1322 127.824 21.2728C127.847 21.4602 127.871 21.5539 127.988 21.5539C128.105 21.5539 128.152 21.4602 128.152 21.3196C128.175 21.1088 128.222 20.1012 128.246 19.9372C128.292 19.492 128.386 19.2812 128.386 19.164C128.386 19.0703 128.339 19 128.269 19C128.175 19 128.105 19.0703 127.988 19.0937C127.824 19.1406 127.613 19.1406 127.285 19.164C126.887 19.1874 123.442 19.1874 122.786 19.1874C122.552 19.1874 122.154 19.164 121.708 19.164C121.263 19.164 120.771 19.1406 120.326 19.1406C120.068 19.1406 119.928 19.164 119.928 19.3046C119.928 19.3983 120.045 19.4452 120.209 19.4452C120.443 19.4452 120.748 19.4686 120.865 19.492C121.427 19.6092 121.568 19.8904 121.591 20.4527C121.615 20.9916 121.615 21.4836 121.615 24.061V27.0601C121.615 28.7003 121.615 29.9655 121.521 30.6919C121.451 31.1839 121.357 31.5588 121.029 31.6291C120.865 31.6525 120.678 31.6994 120.42 31.6994C120.232 31.6994 120.162 31.7463 120.162 31.84C120.162 31.9806 120.279 32.004 120.514 32.004C121.17 32.004 122.224 31.9571 122.669 31.9571C123.114 31.9571 124.192 32.004 125.246 32.004C125.504 32.004 125.621 31.9571 125.621 31.84C125.621 31.7463 125.551 31.6994 125.34 31.6994C125.106 31.6994 124.731 31.676 124.497 31.6291C123.981 31.5588 123.888 31.1839 123.841 30.6919C123.747 29.9655 123.747 28.7003 123.747 27.0601V25.7246H123.794Z" fill="#E3B576"/>
<path id="Vector_15" fill-rule="evenodd" clip-rule="evenodd" d="M133.26 27.8569C133.26 29.2628 133.26 30.4109 133.19 30.9966C133.143 31.4184 133.049 31.6292 132.744 31.6995C132.604 31.723 132.44 31.7464 132.205 31.7464C132.018 31.7464 131.971 31.8401 131.971 31.9104C131.971 32.0041 132.065 32.0744 132.252 32.0744C132.838 32.0744 133.869 32.0276 134.22 32.0276C134.619 32.0276 135.65 32.0744 136.634 32.0744C136.798 32.0744 136.915 32.0276 136.915 31.9104C136.915 31.8401 136.845 31.7464 136.681 31.7464C136.47 31.7464 136.118 31.723 135.907 31.6995C135.462 31.6292 135.369 31.4184 135.322 31.02C135.251 30.4109 135.251 29.2393 135.251 27.8569V25.303C135.251 23.1005 135.251 22.7022 135.275 22.2336C135.298 21.7181 135.439 21.5072 135.837 21.4604C136.001 21.4369 136.118 21.4135 136.282 21.4135C136.446 21.4135 136.517 21.3901 136.517 21.2495C136.517 21.1558 136.4 21.1323 136.212 21.1323C135.626 21.1323 134.666 21.1558 134.291 21.1558C133.869 21.1558 132.838 21.1323 132.276 21.1323C132.041 21.1323 131.924 21.1558 131.924 21.2495C131.924 21.3901 132.018 21.4135 132.159 21.4135C132.346 21.4135 132.533 21.4369 132.697 21.4838C133.025 21.5775 133.166 21.765 133.213 22.257C133.236 22.7256 133.236 23.1239 133.236 25.3264V27.8569H133.26Z" fill="#E3B576"/>
<path id="Vector_16" fill-rule="evenodd" clip-rule="evenodd" d="M141.882 27.8569C141.882 29.1924 141.882 30.3171 141.812 30.9497C141.765 31.3715 141.671 31.6527 141.367 31.723C141.226 31.7464 141.062 31.7698 140.828 31.7698C140.64 31.7698 140.594 31.8635 140.594 31.9338C140.594 32.0276 140.687 32.0979 140.875 32.0979C141.461 32.0979 142.421 32.051 142.702 32.051C142.913 32.051 144.155 32.0979 145.045 32.0979C145.233 32.0979 145.35 32.051 145.35 31.9338C145.35 31.8635 145.28 31.7698 145.163 31.7698C144.975 31.7698 144.647 31.7464 144.436 31.723C143.968 31.6527 143.897 31.3715 143.85 30.9497C143.78 30.3405 143.757 29.2159 143.757 27.8569V27.646C143.757 27.5523 143.804 27.5289 143.874 27.5289L145.209 27.5523C145.303 27.5523 145.397 27.5757 145.491 27.646C145.678 27.8569 146.311 28.841 146.896 29.6142C147.74 30.7389 148.302 31.4184 148.935 31.7464C149.333 31.9573 149.732 32.0276 150.575 32.0276H152.004C152.192 32.0276 152.286 32.0041 152.286 31.8635C152.286 31.7932 152.215 31.6995 152.098 31.6995C151.981 31.6995 151.887 31.6995 151.747 31.6761C151.512 31.6292 150.973 31.5589 150.153 30.7154C149.263 29.8016 148.185 28.513 146.873 26.8728C148.349 25.7013 148.958 24.7406 148.958 23.6628C148.958 22.7022 148.326 21.9524 147.904 21.6712C147.107 21.1323 146.006 21.062 145.069 21.062C144.6 21.062 143.241 21.0854 142.726 21.0854C142.421 21.0854 141.461 21.062 140.687 21.062C140.476 21.062 140.336 21.0854 140.336 21.2026C140.336 21.2963 140.43 21.3666 140.594 21.3666C140.804 21.3666 141.062 21.39 141.179 21.4135C141.648 21.5541 141.789 21.6946 141.835 22.1867C141.859 22.6553 141.859 23.0536 141.859 25.2561V27.8569H141.882ZM143.804 22.1164C143.804 21.9992 143.827 21.9524 143.944 21.9055C144.108 21.8821 144.46 21.8587 144.835 21.8587C145.725 21.8587 147.107 22.3741 147.107 24.436C147.107 25.631 146.592 26.2636 146.147 26.5916C145.889 26.7791 145.678 26.826 145.092 26.826C144.717 26.826 144.272 26.8025 143.944 26.6854C143.85 26.6385 143.804 26.5916 143.804 26.4276V22.1164Z" fill="#E3B576"/>
<path id="Vector_17" fill-rule="evenodd" clip-rule="evenodd" d="M154.347 30.5982C154.277 31.0668 154.136 31.6526 153.738 31.6994C153.504 31.7229 153.387 31.7229 153.27 31.7229C153.106 31.7229 153.035 31.7931 153.035 31.8634C153.035 32.004 153.152 32.0275 153.316 32.0275C153.785 32.0275 154.511 31.9806 154.793 31.9806C155.074 31.9806 155.753 32.0275 156.386 32.0275C156.597 32.0275 156.737 32.004 156.737 31.8634C156.737 31.7931 156.644 31.7229 156.503 31.7229C156.362 31.7229 156.222 31.6994 155.964 31.6526C155.706 31.6057 155.495 31.4885 155.495 31.2308C155.495 30.9965 155.519 30.8091 155.542 30.5513L156.269 24.9045H156.316C156.808 25.9121 157.698 27.7397 157.815 27.9974C157.979 28.3957 159.174 30.6216 159.526 31.2777C159.76 31.7229 159.924 32.004 160.111 32.004C160.275 32.004 160.369 31.8634 160.697 31.184L163.907 24.7171H163.954L164.797 30.9731C164.844 31.3714 164.821 31.5588 164.727 31.5823C164.633 31.6057 164.563 31.676 164.563 31.7463C164.563 31.84 164.657 31.9103 165.008 31.9103C165.594 31.9337 167.726 32.004 168.101 32.004C168.312 32.004 168.499 31.9572 168.499 31.84C168.499 31.7463 168.406 31.6994 168.265 31.6994C168.078 31.6994 167.843 31.676 167.422 31.5588C166.953 31.4183 166.836 31.0199 166.695 30.1296L165.336 21.2025C165.289 20.8979 165.125 20.7339 164.985 20.7339C164.844 20.7339 164.704 20.851 164.587 21.0853L160.58 29.2626L156.573 21.2025C156.362 20.8042 156.269 20.7339 156.105 20.7339C155.987 20.7339 155.847 20.8745 155.823 21.1088L154.347 30.5982Z" fill="#E3B576"/>
<path id="Vector_18" fill-rule="evenodd" clip-rule="evenodd" d="M95.1851 39.2675C95.4428 39.2675 95.7005 39.2206 95.9348 39.08C96.2863 38.8691 96.38 38.5411 96.38 38.2599C96.38 37.8148 96.1692 37.4867 95.6068 37.065L95.4662 36.9713C95.0679 36.6667 94.9742 36.5026 94.9742 36.2918C94.9742 36.0106 95.1851 35.7997 95.5365 35.7997C95.8411 35.7997 95.9817 35.9403 96.052 36.034C96.1457 36.1512 96.1692 36.2918 96.1692 36.3386C96.1692 36.3855 96.1926 36.4323 96.216 36.4323C96.2629 36.4323 96.2629 36.3855 96.2629 36.2918C96.2629 35.9169 96.2863 35.7763 96.2863 35.7294C96.2863 35.706 96.2629 35.6826 96.216 35.6826C96.0989 35.6591 95.888 35.6123 95.5834 35.6123C94.9273 35.6123 94.4822 35.9872 94.4822 36.5026C94.4822 36.8775 94.6696 37.2056 95.1851 37.6273L95.3959 37.7913C95.7943 38.0959 95.8646 38.3068 95.8646 38.5411C95.8646 38.7988 95.6537 39.08 95.2319 39.08C94.9508 39.08 94.6696 38.9629 94.5524 38.6114C94.529 38.5411 94.5056 38.4239 94.5056 38.3771C94.5056 38.3302 94.5056 38.3068 94.4587 38.3068C94.4119 38.3068 94.4119 38.3537 94.4119 38.4239C94.4119 38.4942 94.3884 38.7754 94.3884 39.0332C94.3884 39.1269 94.4119 39.1503 94.4822 39.1972C94.693 39.244 94.9039 39.2675 95.1851 39.2675ZM99.4963 37.0181C99.4963 36.2918 99.4963 36.1746 99.4963 36.0106C99.4963 35.8466 99.5432 35.7763 99.6603 35.7529C99.7072 35.7529 99.8009 35.7294 99.8478 35.7294C99.8946 35.7294 99.9415 35.7294 99.9415 35.6826C99.9415 35.6591 99.9181 35.6357 99.8478 35.6357C99.6603 35.6357 99.3089 35.6591 99.2151 35.6591C99.098 35.6591 98.7934 35.6357 98.5591 35.6357C98.4888 35.6357 98.4654 35.6357 98.4654 35.6826C98.4654 35.706 98.4888 35.7294 98.5357 35.7294C98.6059 35.7294 98.6528 35.7294 98.6997 35.7529C98.8637 35.7763 98.8871 35.87 98.9105 36.0106C98.9105 36.1512 98.9105 36.2918 98.9105 37.0181V37.8382C98.9105 38.2834 98.9105 38.6348 98.8871 38.8457C98.8637 38.9863 98.8402 39.08 98.7465 39.1034C98.6997 39.1034 98.6528 39.1269 98.5825 39.1269C98.5357 39.1269 98.5122 39.1503 98.5122 39.1737C98.5122 39.1972 98.5356 39.2206 98.6059 39.2206C98.6997 39.2206 98.8168 39.2206 98.934 39.2206C99.0511 39.2206 99.1448 39.2206 99.1917 39.2206C99.3792 39.2206 99.5666 39.2206 99.7775 39.244C99.9883 39.244 100.246 39.2675 100.574 39.2675C100.808 39.2675 100.855 39.244 100.879 39.1503C100.926 39.0097 100.949 38.6583 100.949 38.6114C100.949 38.5645 100.949 38.5411 100.902 38.5411C100.855 38.5411 100.855 38.5645 100.855 38.6114C100.855 38.7051 100.785 38.8457 100.738 38.8926C100.621 39.0097 100.434 39.0332 100.176 39.0332C99.8009 39.0332 99.6838 39.0097 99.6135 38.9394C99.5197 38.8457 99.5197 38.5177 99.5197 37.9319V37.0181H99.4963ZM104.581 39.2675C105.776 39.2675 106.525 38.424 106.525 37.3227C106.525 36.2449 105.799 35.5654 104.628 35.5654C103.222 35.5654 102.683 36.6198 102.683 37.4164C102.683 38.2599 103.222 39.2675 104.581 39.2675ZM104.768 39.0332C103.854 39.0332 103.316 38.2599 103.316 37.2759C103.316 36.1043 103.925 35.7997 104.487 35.7997C105.26 35.7997 105.869 36.4558 105.869 37.5102C105.869 38.8691 105.096 39.0332 104.768 39.0332ZM111.844 38.3771C111.844 38.1428 111.844 37.9553 111.844 37.8148C111.844 37.6507 111.891 37.5804 112.032 37.557C112.079 37.557 112.125 37.5336 112.149 37.5336C112.172 37.5336 112.219 37.5336 112.219 37.4867C112.219 37.4399 112.196 37.4399 112.125 37.4399C111.961 37.4399 111.727 37.4633 111.563 37.4633C111.423 37.4633 111.118 37.4399 110.884 37.4399C110.813 37.4399 110.79 37.4399 110.79 37.4867C110.79 37.5102 110.813 37.5336 110.86 37.5336C110.93 37.5336 111.001 37.5336 111.048 37.557C111.212 37.5804 111.235 37.6742 111.258 37.8148C111.258 37.9553 111.258 38.1428 111.258 38.3771V38.8223C111.258 38.8926 111.235 38.9629 111.165 38.9863C111.048 39.0331 110.884 39.0332 110.766 39.0332C109.782 39.0332 109.126 38.2834 109.126 37.2524C109.126 36.6667 109.29 36.3152 109.571 36.1043C109.9 35.8232 110.251 35.8231 110.509 35.8231C111.048 35.8231 111.423 36.034 111.563 36.198C111.68 36.3386 111.704 36.4792 111.727 36.5964C111.727 36.6432 111.751 36.6667 111.774 36.6667C111.821 36.6667 111.821 36.6432 111.821 36.5729C111.821 35.9872 111.844 35.8466 111.844 35.7997C111.844 35.7763 111.844 35.7529 111.774 35.7529C111.657 35.7529 111.493 35.7294 111.399 35.706C111.305 35.6826 110.884 35.6357 110.556 35.6357C110.157 35.6357 109.735 35.6591 109.29 35.9403C108.869 36.198 108.47 36.7369 108.47 37.4867C108.47 38.7988 109.501 39.3377 110.649 39.3377C111.024 39.3377 111.469 39.2909 111.797 39.1269C111.844 39.1034 111.868 39.08 111.868 38.9629V38.3771H111.844ZM115.827 37.9788C115.851 37.9788 115.874 37.9788 115.874 38.0022L116.249 39.0097C116.273 39.0566 116.249 39.1034 116.202 39.1269C116.155 39.1269 116.132 39.1503 116.132 39.1737C116.132 39.1972 116.179 39.1972 116.273 39.2206C116.648 39.2206 116.999 39.2206 117.163 39.2206C117.327 39.2206 117.374 39.2206 117.374 39.1737C117.374 39.1503 117.35 39.1269 117.304 39.1269C117.257 39.1269 117.186 39.1269 117.116 39.1034C117.022 39.08 116.882 39.0097 116.694 38.588C116.39 37.8616 115.64 35.9403 115.523 35.6826C115.476 35.5654 115.453 35.542 115.406 35.542C115.359 35.542 115.335 35.5888 115.265 35.7294L114.07 38.7051C113.976 38.9394 113.883 39.1034 113.672 39.1269C113.625 39.1269 113.578 39.1269 113.531 39.1269C113.484 39.1269 113.484 39.1269 113.484 39.1737C113.484 39.2206 113.508 39.2206 113.578 39.2206C113.812 39.2206 114.094 39.1972 114.14 39.1972C114.281 39.1972 114.492 39.2206 114.633 39.2206C114.679 39.2206 114.703 39.2206 114.703 39.1737C114.703 39.1503 114.679 39.1269 114.633 39.1269H114.562C114.422 39.1269 114.375 39.0566 114.375 38.9863C114.375 38.9394 114.398 38.8223 114.445 38.7051L114.703 38.0256C114.703 38.0022 114.726 37.9788 114.75 37.9788H115.827V37.9788ZM114.867 37.7445C114.843 37.7445 114.843 37.721 114.843 37.721L115.289 36.5495C115.289 36.5261 115.312 36.5026 115.312 36.5026C115.335 36.5026 115.335 36.5261 115.335 36.5495L115.757 37.721C115.757 37.7445 115.757 37.7445 115.734 37.7445H114.867ZM119.506 36.5729C119.6 36.6667 120.139 37.2524 120.654 37.7679C121.146 38.2599 121.755 38.8691 122.037 39.1503C122.083 39.1972 122.154 39.244 122.201 39.244C122.247 39.244 122.271 39.1972 122.271 39.1034L122.318 36.1277C122.318 35.87 122.365 35.7529 122.482 35.7294C122.529 35.706 122.575 35.706 122.622 35.706C122.669 35.706 122.716 35.6826 122.716 35.6591C122.716 35.6123 122.669 35.6123 122.599 35.6123C122.365 35.6123 122.177 35.6357 122.13 35.6357C122.037 35.6357 121.802 35.6123 121.568 35.6123C121.498 35.6123 121.451 35.6123 121.451 35.6591C121.451 35.6826 121.474 35.706 121.521 35.706C121.591 35.706 121.709 35.706 121.779 35.7294C121.896 35.7763 121.943 35.87 121.943 36.1512L121.99 38.2599H121.966C121.896 38.1896 121.24 37.5102 120.935 37.1821C120.256 36.5026 119.53 35.7294 119.483 35.6591C119.412 35.5654 119.365 35.5186 119.319 35.5186C119.272 35.5186 119.248 35.5888 119.248 35.6826L119.201 38.4708C119.201 38.8926 119.178 39.0097 119.061 39.0566C118.991 39.08 118.92 39.08 118.85 39.08C118.803 39.08 118.78 39.08 118.78 39.1269C118.78 39.1737 118.827 39.1737 118.873 39.1737C119.108 39.1737 119.342 39.1503 119.389 39.1503C119.483 39.1503 119.67 39.1737 119.975 39.1737C120.045 39.1737 120.092 39.1737 120.092 39.1269C120.092 39.1034 120.068 39.08 120.022 39.08C119.951 39.08 119.858 39.08 119.787 39.0566C119.694 39.0331 119.623 38.8926 119.623 38.5411L119.506 36.5729ZM128.644 37.1353C128.621 37.1353 128.621 37.1353 128.621 37.1118V37.0181C128.621 36.2918 128.621 36.1746 128.621 36.0106C128.621 35.8466 128.667 35.7763 128.785 35.7529C128.831 35.7529 128.878 35.7294 128.925 35.7294C128.972 35.7294 129.019 35.7294 129.019 35.6826C129.019 35.6591 128.995 35.6357 128.925 35.6357C128.738 35.6357 128.433 35.6591 128.339 35.6591C128.222 35.6591 127.918 35.6357 127.66 35.6357C127.59 35.6357 127.566 35.6357 127.566 35.6826C127.566 35.706 127.59 35.7294 127.637 35.7294C127.707 35.7294 127.777 35.7294 127.824 35.7529C127.988 35.7763 128.011 35.87 128.035 36.0106C128.035 36.1512 128.035 36.2918 128.035 37.0181V37.8382C128.035 38.2834 128.035 38.6348 128.011 38.8457C127.988 38.9863 127.965 39.08 127.871 39.1034C127.824 39.1034 127.777 39.1269 127.707 39.1269C127.66 39.1269 127.637 39.1503 127.637 39.1737C127.637 39.1972 127.66 39.2206 127.73 39.2206C127.918 39.2206 128.222 39.1972 128.316 39.1972C128.457 39.1972 128.738 39.2206 129.042 39.2206C129.089 39.2206 129.136 39.1972 129.136 39.1737C129.136 39.1503 129.113 39.1269 129.066 39.1269C128.995 39.1269 128.902 39.1269 128.831 39.1034C128.691 39.08 128.667 38.9863 128.644 38.8457C128.621 38.6348 128.621 38.2599 128.621 37.8382V37.4164C128.621 37.393 128.644 37.393 128.644 37.393H130.448C130.472 37.393 130.472 37.393 130.472 37.4164V37.8382C130.472 38.2834 130.472 38.6348 130.448 38.8457C130.425 38.9863 130.401 39.08 130.308 39.1034C130.261 39.1034 130.214 39.1269 130.144 39.1269C130.097 39.1269 130.073 39.1503 130.073 39.1737C130.073 39.1972 130.097 39.2206 130.167 39.2206C130.354 39.2206 130.659 39.1972 130.753 39.1972C130.893 39.1972 131.175 39.2206 131.479 39.2206C131.526 39.2206 131.573 39.1972 131.573 39.1737C131.573 39.1503 131.549 39.1269 131.503 39.1269C131.432 39.1269 131.339 39.1269 131.268 39.1034C131.128 39.08 131.104 38.9863 131.081 38.8457C131.057 38.6348 131.057 38.2599 131.057 37.8382V37.0181C131.057 36.2918 131.057 36.1746 131.057 36.0106C131.057 35.8466 131.104 35.7763 131.221 35.7529C131.268 35.7529 131.315 35.7294 131.362 35.7294C131.409 35.7294 131.456 35.7294 131.456 35.6826C131.456 35.6591 131.432 35.6357 131.362 35.6357C131.175 35.6357 130.87 35.6591 130.776 35.6591C130.659 35.6591 130.354 35.6357 130.097 35.6357C130.026 35.6357 130.003 35.6357 130.003 35.6826C130.003 35.706 130.026 35.7294 130.073 35.7294C130.144 35.7294 130.214 35.7294 130.261 35.7529C130.425 35.7763 130.448 35.87 130.472 36.0106C130.472 36.1512 130.472 36.2918 130.472 37.0181V37.1118C130.472 37.1353 130.448 37.1353 130.448 37.1353H128.644ZM134.033 37.8382C134.033 38.2834 134.033 38.6348 134.01 38.8457C133.986 38.9863 133.963 39.08 133.869 39.1034C133.822 39.1034 133.775 39.1269 133.705 39.1269C133.658 39.1269 133.635 39.1503 133.635 39.1737C133.635 39.1972 133.658 39.2206 133.728 39.2206C133.822 39.2206 133.939 39.2206 134.057 39.2206C134.174 39.2206 134.267 39.2206 134.314 39.2206C134.455 39.2206 134.595 39.2206 134.806 39.244C135.017 39.244 135.275 39.2675 135.626 39.2675C135.814 39.2675 135.837 39.2675 135.884 39.1503C135.908 39.0566 135.954 38.7285 135.954 38.6348C135.954 38.588 135.954 38.5411 135.908 38.5411C135.884 38.5411 135.861 38.5645 135.861 38.6114C135.837 38.7988 135.767 38.8926 135.65 38.9629C135.533 39.0097 135.322 39.0097 135.205 39.0097C134.713 39.0097 134.642 38.9394 134.642 38.6114C134.642 38.4708 134.642 38.0491 134.642 37.885V37.5102C134.642 37.4867 134.642 37.4633 134.666 37.4633C134.783 37.4633 135.251 37.4633 135.345 37.4867C135.509 37.5102 135.579 37.5804 135.603 37.6742C135.626 37.7445 135.626 37.7913 135.626 37.8382C135.626 37.8616 135.626 37.885 135.673 37.885C135.72 37.885 135.72 37.8382 135.72 37.7913C135.72 37.7679 135.744 37.5805 135.744 37.4867C135.767 37.2524 135.79 37.1587 135.79 37.1353C135.79 37.1118 135.767 37.0884 135.767 37.0884C135.744 37.0884 135.72 37.1118 135.697 37.1587C135.65 37.2056 135.579 37.229 135.462 37.229C135.345 37.229 134.806 37.229 134.713 37.229C134.689 37.229 134.689 37.2056 134.689 37.1821V35.9872C134.689 35.9637 134.689 35.9403 134.713 35.9403C134.806 35.9403 135.298 35.9403 135.392 35.9637C135.626 35.9872 135.673 36.0575 135.72 36.1277C135.744 36.1746 135.744 36.2683 135.744 36.2918C135.744 36.3386 135.744 36.3621 135.79 36.3621C135.814 36.3621 135.837 36.3386 135.837 36.3152C135.837 36.2683 135.861 36.0575 135.861 36.0106C135.884 35.7997 135.908 35.7294 135.908 35.706C135.908 35.6826 135.908 35.6591 135.884 35.6591C135.861 35.6591 135.837 35.6826 135.814 35.6826C135.767 35.6826 135.697 35.706 135.603 35.706C135.509 35.706 134.572 35.706 134.431 35.706C134.361 35.706 134.267 35.706 134.127 35.706C134.01 35.706 133.869 35.706 133.752 35.706C133.682 35.706 133.658 35.706 133.658 35.7529C133.658 35.7763 133.682 35.7997 133.728 35.7997C133.799 35.7997 133.869 35.7997 133.916 35.8231C134.08 35.8466 134.103 35.9403 134.127 36.0809C134.127 36.2215 134.127 36.3621 134.127 37.0884V37.8382H134.033ZM138.415 37.8382C138.415 38.2834 138.415 38.6348 138.391 38.8457C138.368 38.9863 138.344 39.08 138.251 39.1034C138.204 39.1034 138.157 39.1269 138.087 39.1269C138.04 39.1269 138.016 39.1503 138.016 39.1737C138.016 39.1972 138.04 39.2206 138.11 39.2206C138.297 39.2206 138.602 39.1972 138.696 39.1972C138.766 39.1972 139.118 39.2206 139.399 39.2206C139.469 39.2206 139.492 39.1972 139.492 39.1737C139.492 39.1503 139.469 39.1269 139.446 39.1269C139.399 39.1269 139.282 39.1269 139.211 39.1034C139.071 39.08 139.047 38.9863 139.024 38.8457C139 38.6348 139 38.2834 139 37.8382V37.7679C139 37.7445 139.024 37.721 139.047 37.721H139.469C139.492 37.721 139.539 37.721 139.563 37.7445C139.633 37.8148 139.844 38.1428 140.031 38.4005C140.289 38.7754 140.477 38.9863 140.687 39.1034C140.805 39.1737 140.922 39.1972 141.203 39.1972H141.648C141.695 39.1972 141.742 39.1972 141.742 39.1503C141.742 39.1269 141.718 39.1034 141.695 39.1034C141.648 39.1034 141.625 39.1034 141.554 39.08C141.484 39.0566 141.297 39.0331 141.015 38.752C140.734 38.4708 140.406 38.0491 139.984 37.5102C140.453 37.1353 140.617 36.8072 140.617 36.4558C140.617 36.1512 140.43 35.8934 140.289 35.7997C140.031 35.6357 139.727 35.5888 139.422 35.5888C139.282 35.5888 138.907 35.6123 138.766 35.6123C138.672 35.6123 138.368 35.5888 138.11 35.5888C138.04 35.5888 138.016 35.5888 138.016 35.6357C138.016 35.6591 138.04 35.6826 138.087 35.6826C138.157 35.6826 138.227 35.6826 138.274 35.706C138.438 35.7294 138.461 35.8231 138.485 35.9637C138.485 36.1043 138.485 36.2449 138.485 36.9713V37.8382H138.415ZM138.977 35.9403C138.977 35.8934 138.977 35.8934 139.024 35.87C139.071 35.8466 139.164 35.8466 139.282 35.8466C139.563 35.8466 140.008 36.034 140.008 36.7135C140.008 37.0884 139.867 37.3227 139.727 37.4164C139.633 37.4867 139.586 37.4867 139.399 37.4867C139.282 37.4867 139.141 37.4633 139.047 37.4399C139.024 37.4164 139 37.4164 139 37.3461V35.9403H138.977ZM143.405 37.8382C143.405 38.2834 143.405 38.6348 143.382 38.8457C143.358 38.9863 143.335 39.08 143.241 39.1034C143.194 39.1034 143.148 39.1269 143.077 39.1269C143.03 39.1269 143.007 39.1503 143.007 39.1737C143.007 39.1972 143.03 39.2206 143.101 39.2206C143.194 39.2206 143.312 39.2206 143.429 39.2206C143.546 39.2206 143.64 39.2206 143.686 39.2206C143.827 39.2206 143.968 39.2206 144.179 39.244C144.389 39.244 144.647 39.2675 144.999 39.2675C145.186 39.2675 145.209 39.2675 145.256 39.1503C145.28 39.0566 145.327 38.7285 145.327 38.6348C145.327 38.588 145.327 38.5411 145.28 38.5411C145.256 38.5411 145.233 38.5645 145.233 38.6114C145.209 38.7988 145.139 38.8926 145.022 38.9629C144.905 39.0097 144.694 39.0097 144.577 39.0097C144.085 39.0097 144.015 38.9394 144.015 38.6114C144.015 38.4708 144.015 38.0491 144.015 37.885V37.5102C144.015 37.4867 144.015 37.4633 144.038 37.4633C144.155 37.4633 144.624 37.4633 144.717 37.4867C144.881 37.5102 144.952 37.5804 144.975 37.6742C144.999 37.7445 144.999 37.7913 144.999 37.8382C144.999 37.8616 144.999 37.885 145.045 37.885C145.092 37.885 145.092 37.8382 145.092 37.7913C145.092 37.7679 145.116 37.5805 145.116 37.4867C145.139 37.2524 145.163 37.1587 145.163 37.1353C145.163 37.1118 145.139 37.0884 145.139 37.0884C145.116 37.0884 145.092 37.1118 145.069 37.1587C145.022 37.2056 144.952 37.229 144.835 37.229C144.717 37.229 144.179 37.229 144.085 37.229C144.061 37.229 144.061 37.2056 144.061 37.1821V35.9872C144.061 35.9637 144.061 35.9403 144.085 35.9403C144.179 35.9403 144.671 35.9403 144.764 35.9637C144.999 35.9872 145.045 36.0575 145.069 36.1277C145.092 36.1746 145.092 36.2683 145.092 36.2918C145.092 36.3386 145.092 36.3621 145.139 36.3621C145.163 36.3621 145.186 36.3386 145.186 36.3152C145.186 36.2683 145.209 36.0575 145.209 36.0106C145.233 35.7997 145.256 35.7294 145.256 35.706C145.256 35.6826 145.256 35.6591 145.233 35.6591C145.209 35.6591 145.186 35.6826 145.163 35.6826C145.116 35.6826 145.045 35.706 144.952 35.706C144.858 35.706 143.921 35.706 143.78 35.706C143.71 35.706 143.616 35.706 143.476 35.706C143.358 35.706 143.218 35.706 143.101 35.706C143.03 35.706 143.007 35.706 143.007 35.7529C143.007 35.7763 143.03 35.7997 143.077 35.7997C143.148 35.7997 143.218 35.7997 143.265 35.8231C143.429 35.8466 143.452 35.9403 143.476 36.0809C143.476 36.2215 143.476 36.3621 143.476 37.0884V37.8382H143.405Z" fill="#E3B576"/>
<path id="Vector_19" fill-rule="evenodd" clip-rule="evenodd" d="M71.2389 36.9712H91.1315V38.0021H71.2389V36.9712Z" fill="#E3B576"/>
<path id="Vector_20" fill-rule="evenodd" clip-rule="evenodd" d="M148.63 36.9712H168.523V38.0021H148.63V36.9712Z" fill="#E3B576"/>
</g>
</g>
</svg>
